<svg width="13" height="13" viewBox="0 0 13 13" fill="none" xmlns="http://www.w3.org/2000/svg">
<g clip-path="url(#clip0_68_2326)">
<circle cx="6.5" cy="6.5" r="6.5" fill="#8B8A8A"/>
<path d="M8.12492 5.95834H7.04159V3.79167C7.04159 3.64801 6.98452 3.51024 6.88294 3.40865C6.78136 3.30707 6.64358 3.25 6.49992 3.25C6.35626 3.25 6.21849 3.30707 6.11691 3.40865C6.01532 3.51024 5.95825 3.64801 5.95825 3.79167V6.5C5.95825 6.64366 6.01532 6.78144 6.11691 6.88302C6.21849 6.9846 6.35626 7.04167 6.49992 7.04167H8.12492C8.26858 7.04167 8.40636 6.9846 8.50794 6.88302C8.60952 6.78144 8.66659 6.64366 8.66659 6.5C8.66659 6.35634 8.60952 6.21857 8.50794 6.11699C8.40636 6.0154 8.26858 5.95834 8.12492 5.95834ZM6.49992 1.08334C5.42861 1.08334 4.38135 1.40102 3.49058 1.99621C2.59982 2.5914 1.90555 3.43737 1.49557 4.42713C1.0856 5.4169 0.978331 6.50601 1.18733 7.55674C1.39634 8.60747 1.91222 9.57263 2.66976 10.3302C3.42729 11.0877 4.39245 11.6036 5.44318 11.8126C6.49391 12.0216 7.58302 11.9143 8.57279 11.5043C9.56256 11.0944 10.4085 10.4001 11.0037 9.50934C11.5989 8.61857 11.9166 7.57132 11.9166 6.5C11.9166 5.78868 11.7765 5.08431 11.5043 4.42713C11.2321 3.76995 10.8331 3.17282 10.3301 2.66984C9.8271 2.16686 9.22997 1.76787 8.57279 1.49566C7.91561 1.22344 7.21125 1.08334 6.49992 1.08334ZM6.49992 10.8333C5.64287 10.8333 4.80506 10.5792 4.09245 10.103C3.37984 9.62688 2.82442 8.95011 2.49644 8.1583C2.16846 7.36648 2.08265 6.4952 2.24985 5.65461C2.41705 4.81403 2.82976 4.0419 3.43579 3.43587C4.04182 2.82985 4.81395 2.41714 5.65453 2.24993C6.49511 2.08273 7.3664 2.16854 8.15822 2.49652C8.95003 2.8245 9.6268 3.37992 10.103 4.09253C10.5791 4.80514 10.8333 5.64295 10.8333 6.5C10.8333 7.64927 10.3767 8.75147 9.56405 9.56413C8.75139 10.3768 7.64919 10.8333 6.49992 10.8333Z" fill="white"/>
</g>
<defs>
<clipPath id="clip0_68_2326">
<rect width="13" height="13" fill="white"/>
</clipPath>
</defs>
</svg>
