<svg width="424" height="357" viewBox="0 0 424 357" fill="none" xmlns="http://www.w3.org/2000/svg">
<path d="M385.772 84.559H304.72C304.72 84.559 312.759 66.0807 325.123 66.0807C337.487 66.0807 341.371 78.8327 341.371 78.8327C341.371 78.8327 349.715 71.8998 356.567 71.8998C363.419 71.8998 369.38 81.0604 369.38 81.0604C369.38 81.0604 379.056 76.1338 385.772 84.559Z" fill="#EBEBEB"/>
<path d="M296.35 60.69H258.47C258.47 60.69 266.95 50.3655 273.607 50.3655C280.264 50.3655 282.24 57.2485 282.24 57.2485C282.24 57.2485 286.946 54.0355 291.305 54.6138C295.663 55.1922 296.35 60.69 296.35 60.69Z" fill="#EBEBEB"/>
<path d="M112.004 112.012H38.2278C38.2278 112.012 48.3359 93.0199 59.1395 91.8347C69.943 90.6494 75.1158 105.943 75.1158 105.943C75.1158 105.943 82.0863 100.538 87.5729 100.538C93.0595 100.538 97.2825 107.678 97.2825 107.678C97.2825 107.678 108.247 102.816 112.004 112.012Z" fill="#EBEBEB"/>
<path d="M168.226 45.3747H118.398C118.398 45.3747 126.954 31.6088 136.206 31.4089C145.457 31.2089 150.376 41.8261 150.376 41.8261C150.376 41.8261 164.86 32.0657 168.226 45.3747Z" fill="#EBEBEB"/>
<path d="M216.308 127.906H182.668C182.668 127.906 188.451 118.624 194.718 118.481C200.985 118.338 204.283 125.507 204.283 125.507C204.283 125.507 214.035 118.924 216.308 127.906Z" fill="#EBEBEB"/>
<path d="M256.868 154.831H167.166V239.254H256.868V154.831Z" fill="#DBDBDB"/>
<path d="M258.937 149.712H165.097V154.838H258.937V149.712Z" fill="#EBEBEB"/>
<path d="M233.98 204.782H190.071V209.909H233.98V204.782Z" fill="#EBEBEB"/>
<path d="M193.641 167.062H178.411V186.939H193.641V167.062Z" fill="#C7C7C7"/>
<path d="M192.072 168.518H179.979V185.49H192.072V168.518Z" fill="white"/>
<path d="M195.828 186.947H176.231V189.803H195.828V186.947Z" fill="#EBEBEB"/>
<g opacity="0.5">
<path d="M192.072 168.525V170.617L179.979 180.806V176.929L189.969 168.525H192.072Z" fill="#EBEBEB"/>
<path d="M192.072 181.099V183.041L189.163 185.49H186.865L192.072 181.099Z" fill="#EBEBEB"/>
<path d="M184.05 168.525L179.979 171.953V170.018L181.743 168.525H184.05Z" fill="#EBEBEB"/>
<path d="M192.072 178.064V178.686L183.99 185.49H183.253L192.072 178.064Z" fill="#EBEBEB"/>
</g>
<path d="M193.641 178.5H178.411V179.957H193.641V178.5Z" fill="#C7C7C7"/>
<path d="M219.632 167.062H204.402V186.939H219.632V167.062Z" fill="#C7C7C7"/>
<path d="M218.063 168.518H205.971V185.49H218.063V168.518Z" fill="white"/>
<path d="M221.82 186.947H202.222V189.803H221.82V186.947Z" fill="#EBEBEB"/>
<g opacity="0.5">
<path d="M218.072 168.525V170.617L205.971 180.806V176.929L215.96 168.525H218.072Z" fill="#EBEBEB"/>
<path d="M218.072 181.099V183.041L215.155 185.49H212.856L218.072 181.099Z" fill="#EBEBEB"/>
<path d="M210.041 168.525L205.971 171.953V170.018L207.735 168.525H210.041Z" fill="#EBEBEB"/>
<path d="M218.072 178.064V178.686L209.99 185.49H209.244L218.072 178.064Z" fill="#EBEBEB"/>
</g>
<path d="M219.632 178.5H204.402V179.957H219.632V178.5Z" fill="#C7C7C7"/>
<path d="M245.623 167.062H230.393V186.939H245.623V167.062Z" fill="#C7C7C7"/>
<path d="M244.063 168.518H231.97V185.49H244.063V168.518Z" fill="white"/>
<path d="M247.811 186.947H228.214V189.803H247.811V186.947Z" fill="#EBEBEB"/>
<g opacity="0.5">
<path d="M244.063 168.525V170.617L231.962 180.806V176.929L241.951 168.525H244.063Z" fill="#EBEBEB"/>
<path d="M244.063 181.099V183.041L241.154 185.49H238.848L244.063 181.099Z" fill="#EBEBEB"/>
<path d="M236.041 168.525L231.962 171.953V170.018L233.734 168.525H236.041Z" fill="#EBEBEB"/>
<path d="M244.063 178.064V178.686L235.981 185.49H235.244L244.063 178.064Z" fill="#EBEBEB"/>
</g>
<path d="M245.623 178.5H230.393V179.957H245.623V178.5Z" fill="#C7C7C7"/>
<path d="M230.673 209.909H193.369V239.254H230.673V209.909Z" fill="#C7C7C7"/>
<path d="M228.163 212.079H195.879V239.261H228.163V212.079Z" fill="white"/>
<g opacity="0.5">
<path d="M228.163 223.418V228.473L215.349 239.254H209.354L228.163 223.418Z" fill="#EBEBEB"/>
<path d="M204.309 212.079L195.879 219.177V214.121L198.313 212.079H204.309Z" fill="#EBEBEB"/>
<path d="M222.32 212.079L195.879 234.342V231.822L219.327 212.079H222.32Z" fill="#EBEBEB"/>
<path d="M228.163 231.086V233.614L221.455 239.254H218.462L228.163 231.086Z" fill="#EBEBEB"/>
<path d="M228.163 214.6V215.064L199.432 239.254H198.873L228.163 214.6Z" fill="#EBEBEB"/>
<path d="M207.802 212.079L195.879 222.111V221.647L207.243 212.079H207.802Z" fill="#EBEBEB"/>
<path d="M217.97 212.079L195.879 230.672V230.201L217.41 212.079H217.97Z" fill="#EBEBEB"/>
</g>
<path d="M213.06 212.079H210.982V239.261H213.06V212.079Z" fill="#C7C7C7"/>
<path d="M167.166 171.838H91.1345V239.254H167.166V171.838Z" fill="#DBDBDB"/>
<path d="M160.365 171.838H167.166V239.254H164.156L160.365 171.838Z" fill="#C7C7C7"/>
<path d="M113.089 181.099H99.7671V198.478H113.089V181.099Z" fill="#C7C7C7"/>
<path d="M111.715 182.377H101.141V197.214H111.715V182.377Z" fill="white"/>
<path d="M114.989 198.485H97.8591V200.984H114.989V198.485Z" fill="#EBEBEB"/>
<g opacity="0.5">
<path d="M111.715 182.377V184.212L101.141 193.116V189.731L109.867 182.377H111.715Z" fill="#EBEBEB"/>
<path d="M111.715 193.373V195.065L109.171 197.214H107.153L111.715 193.373Z" fill="#EBEBEB"/>
<path d="M104.702 182.377L101.141 185.376V183.676L102.684 182.377H104.702Z" fill="#EBEBEB"/>
<path d="M111.715 190.717V191.266L104.651 197.214H103.999L111.715 190.717Z" fill="#EBEBEB"/>
</g>
<path d="M113.089 191.102H99.7671V192.373H113.089V191.102Z" fill="#C7C7C7"/>
<path d="M135.816 181.099H122.494V198.478H135.816V181.099Z" fill="#C7C7C7"/>
<path d="M134.442 182.377H123.867V197.214H134.442V182.377Z" fill="white"/>
<path d="M137.715 198.485H120.585V200.984H137.715V198.485Z" fill="#EBEBEB"/>
<g opacity="0.5">
<path d="M134.442 182.377V184.212L123.859 193.116V189.731L132.593 182.377H134.442Z" fill="#EBEBEB"/>
<path d="M134.442 193.373V195.065L131.889 197.214H129.88L134.442 193.373Z" fill="#EBEBEB"/>
<path d="M127.42 182.377L123.859 185.376V183.676L125.411 182.377H127.42Z" fill="#EBEBEB"/>
<path d="M134.442 190.717V191.266L127.378 197.214H126.725L134.442 190.717Z" fill="#EBEBEB"/>
</g>
<path d="M135.816 191.102H122.494V192.373H135.816V191.102Z" fill="#C7C7C7"/>
<path d="M158.542 181.099H145.22V198.478H158.542V181.099Z" fill="#C7C7C7"/>
<path d="M157.168 182.377H146.594V197.214H157.168V182.377Z" fill="white"/>
<path d="M160.442 198.485H143.312V200.984H160.442V198.485Z" fill="#EBEBEB"/>
<g opacity="0.5">
<path d="M157.168 182.377V184.212L146.594 193.116V189.731L155.32 182.377H157.168Z" fill="#EBEBEB"/>
<path d="M157.168 193.373V195.065L154.624 197.214H152.606L157.168 193.373Z" fill="#EBEBEB"/>
<path d="M150.147 182.377L146.594 185.376V183.676L148.137 182.377H150.147Z" fill="#EBEBEB"/>
<path d="M157.168 190.717V191.266L150.104 197.214H149.451L157.168 190.717Z" fill="#EBEBEB"/>
</g>
<path d="M158.542 191.102H145.22V192.373H158.542V191.102Z" fill="#C7C7C7"/>
<path d="M113.089 207.346H99.7671V224.724H113.089V207.346Z" fill="#C7C7C7"/>
<path d="M111.715 208.624H101.141V223.461H111.715V208.624Z" fill="white"/>
<path d="M114.989 224.731H97.8591V227.23H114.989V224.731Z" fill="#EBEBEB"/>
<g opacity="0.5">
<path d="M111.715 208.624V210.459L101.141 219.362V215.978L109.867 208.624H111.715Z" fill="#EBEBEB"/>
<path d="M111.715 219.619V221.311L109.171 223.461H107.153L111.715 219.619Z" fill="#EBEBEB"/>
<path d="M104.702 208.624L101.141 211.622V209.923L102.684 208.624H104.702Z" fill="#EBEBEB"/>
<path d="M111.715 216.963V217.506L104.651 223.461H103.999L111.715 216.963Z" fill="#EBEBEB"/>
</g>
<path d="M113.089 217.349H99.7671V218.62H113.089V217.349Z" fill="#C7C7C7"/>
<path d="M135.816 207.346H122.494V224.724H135.816V207.346Z" fill="#C7C7C7"/>
<path d="M134.442 208.624H123.867V223.461H134.442V208.624Z" fill="white"/>
<path d="M137.715 224.731H120.585V227.23H137.715V224.731Z" fill="#EBEBEB"/>
<g opacity="0.5">
<path d="M134.442 208.624V210.459L123.859 219.362V215.978L132.593 208.624H134.442Z" fill="#EBEBEB"/>
<path d="M134.442 219.619V221.311L131.889 223.461H129.88L134.442 219.619Z" fill="#EBEBEB"/>
<path d="M127.42 208.624L123.859 211.622V209.923L125.411 208.624H127.42Z" fill="#EBEBEB"/>
<path d="M134.442 216.963V217.506L127.378 223.461H126.725L134.442 216.963Z" fill="#EBEBEB"/>
</g>
<path d="M135.816 217.349H122.494V218.62H135.816V217.349Z" fill="#C7C7C7"/>
<path d="M158.542 207.346H145.22V224.724H158.542V207.346Z" fill="#C7C7C7"/>
<path d="M157.168 208.624H146.594V223.461H157.168V208.624Z" fill="white"/>
<path d="M160.442 224.731H143.312V227.23H160.442V224.731Z" fill="#EBEBEB"/>
<g opacity="0.5">
<path d="M157.168 208.624V210.459L146.594 219.362V215.978L155.32 208.624H157.168Z" fill="#EBEBEB"/>
<path d="M157.168 219.619V221.311L154.624 223.461H152.606L157.168 219.619Z" fill="#EBEBEB"/>
<path d="M150.147 208.624L146.594 211.622V209.923L148.137 208.624H150.147Z" fill="#EBEBEB"/>
<path d="M157.168 216.963V217.506L150.104 223.461H149.451L157.168 216.963Z" fill="#EBEBEB"/>
</g>
<path d="M158.542 217.349H145.22V218.62H158.542V217.349Z" fill="#C7C7C7"/>
<path d="M167.166 166.712H88.5396V171.838H167.166V166.712Z" fill="#EBEBEB"/>
<path d="M256.834 239.254H332.865V171.838H256.834V239.254Z" fill="#DBDBDB"/>
<path d="M263.635 171.838H256.834V239.254H259.844L263.635 171.838Z" fill="#C7C7C7"/>
<path d="M310.919 198.485H324.241V181.106H310.919V198.485Z" fill="#C7C7C7"/>
<path d="M312.293 197.207H322.867V182.37H312.293V197.207Z" fill="white"/>
<path d="M309.011 200.984H326.141V198.485H309.011V200.984Z" fill="#EBEBEB"/>
<g opacity="0.5">
<path d="M312.284 182.377V184.212L322.867 193.116V189.731L314.133 182.377H312.284Z" fill="#EBEBEB"/>
<path d="M312.284 193.373V195.065L314.828 197.214H316.847L312.284 193.373Z" fill="#EBEBEB"/>
<path d="M319.306 182.377L322.867 185.376V183.676L321.316 182.377H319.306Z" fill="#EBEBEB"/>
<path d="M312.284 190.717V191.266L319.348 197.214H320.001L312.284 190.717Z" fill="#EBEBEB"/>
</g>
<path d="M310.919 192.373H324.241V191.102H310.919V192.373Z" fill="#C7C7C7"/>
<path d="M288.193 198.485H301.515V181.106H288.193V198.485Z" fill="#C7C7C7"/>
<path d="M289.567 197.207H300.141V182.37H289.567V197.207Z" fill="white"/>
<path d="M286.285 200.984H303.414V198.485H286.285V200.984Z" fill="#EBEBEB"/>
<g opacity="0.5">
<path d="M289.558 182.377V184.212L300.141 193.116V189.731L291.407 182.377H289.558Z" fill="#EBEBEB"/>
<path d="M289.558 193.373V195.065L292.102 197.214H294.12L289.558 193.373Z" fill="#EBEBEB"/>
<path d="M296.58 182.377L300.141 185.376V183.676L298.589 182.377H296.58Z" fill="#EBEBEB"/>
<path d="M289.558 190.717V191.266L296.622 197.214H297.275L289.558 190.717Z" fill="#EBEBEB"/>
</g>
<path d="M288.193 192.373H301.515V191.102H288.193V192.373Z" fill="#C7C7C7"/>
<path d="M265.458 198.485H278.78V181.106H265.458V198.485Z" fill="#C7C7C7"/>
<path d="M266.84 197.207H277.415V182.37H266.84V197.207Z" fill="white"/>
<path d="M263.558 200.984H280.688V198.485H263.558V200.984Z" fill="#EBEBEB"/>
<g opacity="0.5">
<path d="M266.832 182.377V184.212L277.406 193.116V189.731L268.68 182.377H266.832Z" fill="#EBEBEB"/>
<path d="M266.832 193.373V195.065L269.384 197.214H271.394L266.832 193.373Z" fill="#EBEBEB"/>
<path d="M273.853 182.377L277.406 185.376V183.676L275.863 182.377H273.853Z" fill="#EBEBEB"/>
<path d="M266.832 190.717V191.266L273.895 197.214H274.548L266.832 190.717Z" fill="#EBEBEB"/>
</g>
<path d="M265.458 192.373H278.78V191.102H265.458V192.373Z" fill="#C7C7C7"/>
<path d="M310.919 224.731H324.241V207.353H310.919V224.731Z" fill="#C7C7C7"/>
<path d="M312.293 223.453H322.867V208.617H312.293V223.453Z" fill="white"/>
<path d="M309.011 227.23H326.141V224.731H309.011V227.23Z" fill="#EBEBEB"/>
<g opacity="0.5">
<path d="M312.284 208.624V210.459L322.867 219.362V215.978L314.133 208.624H312.284Z" fill="#EBEBEB"/>
<path d="M312.284 219.619V221.311L314.828 223.461H316.847L312.284 219.619Z" fill="#EBEBEB"/>
<path d="M319.306 208.624L322.867 211.622V209.923L321.316 208.624H319.306Z" fill="#EBEBEB"/>
<path d="M312.284 216.963V217.506L319.348 223.461H320.001L312.284 216.963Z" fill="#EBEBEB"/>
</g>
<path d="M310.919 218.62H324.241V217.349H310.919V218.62Z" fill="#C7C7C7"/>
<path d="M288.193 224.731H301.515V207.353H288.193V224.731Z" fill="#C7C7C7"/>
<path d="M289.567 223.453H300.141V208.617H289.567V223.453Z" fill="white"/>
<path d="M286.285 227.23H303.414V224.731H286.285V227.23Z" fill="#EBEBEB"/>
<g opacity="0.5">
<path d="M289.558 208.624V210.459L300.141 219.362V215.978L291.407 208.624H289.558Z" fill="#EBEBEB"/>
<path d="M289.558 219.619V221.311L292.102 223.461H294.12L289.558 219.619Z" fill="#EBEBEB"/>
<path d="M296.58 208.624L300.141 211.622V209.923L298.589 208.624H296.58Z" fill="#EBEBEB"/>
<path d="M289.558 216.963V217.506L296.622 223.461H297.275L289.558 216.963Z" fill="#EBEBEB"/>
</g>
<path d="M288.193 218.62H301.515V217.349H288.193V218.62Z" fill="#C7C7C7"/>
<path d="M265.458 224.731H278.78V207.353H265.458V224.731Z" fill="#C7C7C7"/>
<path d="M266.84 223.453H277.415V208.617H266.84V223.453Z" fill="white"/>
<path d="M263.558 227.23H280.688V224.731H263.558V227.23Z" fill="#EBEBEB"/>
<g opacity="0.5">
<path d="M266.832 208.624V210.459L277.406 219.362V215.978L268.68 208.624H266.832Z" fill="#EBEBEB"/>
<path d="M266.832 219.619V221.311L269.384 223.461H271.394L266.832 219.619Z" fill="#EBEBEB"/>
<path d="M273.853 208.624L277.406 211.622V209.923L275.863 208.624H273.853Z" fill="#EBEBEB"/>
<path d="M266.832 216.963V217.506L273.895 223.461H274.548L266.832 216.963Z" fill="#EBEBEB"/>
</g>
<path d="M265.458 218.62H278.78V217.349H265.458V218.62Z" fill="#C7C7C7"/>
<path d="M256.825 171.838H335.452V166.712H256.825V171.838Z" fill="#EBEBEB"/>
<path d="M242.893 143.643V149.704H181.15V143.643H192.08C192.08 143.643 197.414 136.738 212.017 136.738C226.619 136.738 231.97 143.643 231.97 143.643H242.893Z" fill="#DBDBDB"/>
<path d="M212 335.744C300.061 335.744 371.449 330.374 371.449 323.749C371.449 317.124 300.061 311.754 212 311.754C123.938 311.754 52.5505 317.124 52.5505 323.749C52.5505 330.374 123.938 335.744 212 335.744Z" fill="#EBEBEB"/>
<path d="M74.9802 239.269C74.9802 239.269 74.2679 236.462 72.8432 236.034C71.4186 235.606 70.5451 236.855 70.5451 236.855C70.5451 236.855 70.2144 234.178 68.1877 233.378C66.161 232.578 64.6515 234.192 64.6515 234.192C64.6515 234.192 63.0997 230.793 60.3267 230.793C57.5538 230.793 56.1631 235.791 56.1631 235.791C56.1631 235.791 54.5264 234.306 52.8474 235.149C51.1683 235.991 51.1514 239.269 51.1514 239.269H74.9802Z" fill="#37474F"/>
<path d="M311.437 239.269C311.437 239.269 310.724 236.463 309.3 236.034C307.875 235.606 307.01 236.855 307.01 236.855C307.01 236.855 306.671 234.178 304.653 233.378C302.634 232.579 301.116 234.214 301.116 234.214C301.116 234.214 299.565 230.815 296.792 230.815C294.019 230.815 292.619 235.813 292.619 235.813C292.619 235.813 290.991 234.328 289.312 235.17C287.633 236.013 287.616 239.29 287.616 239.29L311.437 239.269Z" fill="#455A64"/>
<path d="M137.97 239.269H112.911C112.911 239.269 113.759 236.291 115.396 236.084C115.896 236.044 116.398 236.134 116.835 236.343C117.271 236.551 117.622 236.867 117.838 237.248C117.838 237.248 117.762 233.1 120.866 232.393C123.969 231.686 126.564 235.356 126.564 235.356C126.564 235.356 128.515 233.264 131.16 233.399C133.806 233.535 134.493 236.969 134.493 236.969C134.493 236.969 136.901 235.784 137.97 239.269Z" fill="#37474F"/>
<path d="M52.7118 239.269H39.5254C39.5254 239.269 39.5254 237.612 40.8483 237.177C41.1997 237.047 41.5919 237.017 41.9653 237.091C42.3387 237.166 42.673 237.341 42.9174 237.591C42.9174 237.591 43.4432 234.556 45.86 234.556C48.2768 234.556 49.4385 237.177 49.4385 237.177C49.6435 236.926 49.931 236.732 50.2656 236.618C50.6001 236.504 50.967 236.475 51.3211 236.534C52.6609 236.677 52.7118 239.269 52.7118 239.269Z" fill="#455A64"/>
<path d="M148.315 239.269H135.129C135.129 239.269 135.129 237.612 136.452 237.177C136.803 237.047 137.195 237.017 137.569 237.091C137.942 237.166 138.276 237.341 138.521 237.591C138.521 237.591 139.055 234.556 141.472 234.556C143.889 234.556 145.042 237.177 145.042 237.177C145.247 236.926 145.535 236.732 145.869 236.618C146.204 236.504 146.571 236.475 146.925 236.534C148.264 236.677 148.315 239.269 148.315 239.269Z" fill="#455A64"/>
<path d="M365.234 239.269H352.047C352.047 239.269 352.047 237.612 353.37 237.177C353.722 237.047 354.114 237.017 354.487 237.091C354.861 237.166 355.195 237.341 355.439 237.591C355.439 237.591 355.965 234.556 358.382 234.556C360.799 234.556 361.96 237.177 361.96 237.177C362.165 236.926 362.452 236.731 362.787 236.617C363.122 236.502 363.489 236.474 363.843 236.534C365.183 236.677 365.234 239.269 365.234 239.269Z" fill="#455A64"/>
<path d="M384.475 239.269H362.732C362.732 239.269 362.783 236.541 364.92 235.82C365.501 235.614 366.146 235.573 366.757 235.702C367.369 235.83 367.914 236.122 368.312 236.534C368.312 236.534 369.16 231.536 373.171 231.536C377.182 231.536 379.056 235.82 379.056 235.82C379.394 235.407 379.868 235.086 380.419 234.897C380.971 234.708 381.576 234.659 382.16 234.756C384.39 234.999 384.475 239.269 384.475 239.269Z" fill="#37474F"/>
<path d="M261.871 237.762C261.871 237.762 279.094 261.874 279.102 261.895C282.427 266.486 285.242 270.57 286.463 272.791C286.818 273.286 287.032 273.843 287.091 274.419C287.091 274.419 287.091 274.454 287.091 274.462C286.141 276.225 243.291 299.644 241.468 300.037C239.645 300.43 238.169 296.089 238.975 294.061C239.781 292.033 251.424 276.889 251.424 276.889L234.464 252.649L261.871 237.762Z" fill="#FFC4C0"/>
<path d="M273.963 254.727L245.454 268.414C245.454 268.414 220.777 238.933 215.833 221.133C212.314 208.467 243.758 149.476 243.758 149.476L273.675 150.461C273.675 150.461 246.81 207.581 248.235 213.479C249.973 220.683 273.963 254.727 273.963 254.727Z" fill="#FFC4C0"/>
<path d="M287.099 274.483C287.099 274.483 287.099 274.519 287.099 274.526C286.141 276.289 243.291 299.709 241.477 300.101C239.662 300.494 238.178 296.153 238.983 294.125C239.424 293.026 243.011 288.113 246.225 283.822C243.24 287.992 237.058 300.173 282.248 266.329C284.148 269.049 285.64 271.327 286.488 272.819C286.846 273.325 287.055 273.896 287.099 274.483Z" fill="#263238"/>
<path d="M304.313 192.78L324.725 174.587C329.414 170.924 336.088 165.305 337.275 165.227C339.505 165.662 375.859 196.578 376.682 198.006C377.504 199.434 372.747 201.512 370.228 201.255C367.71 200.998 347.756 194.415 347.756 194.415L326.192 212.508L304.313 192.78Z" fill="#FFC4C0"/>
<path d="M370.228 201.284C368.956 201.148 363.343 199.442 358.034 197.764C364.165 198.749 376.08 198.613 325.573 173.945C330.177 170.31 336.147 165.312 337.267 165.255C339.505 165.691 375.859 196.607 376.673 198.035C377.487 199.463 372.747 201.541 370.228 201.284Z" fill="#263238"/>
<path d="M244.003 149.483C244.003 149.483 245.886 158.322 247.743 165.47C249.091 170.689 250.516 175.287 251.432 175.787C252.348 176.287 257.554 178.457 259.267 179.121C259.267 179.121 266.45 213.336 274.531 224.996C277.313 228.987 291.653 234.028 299.403 230.708C317.584 222.854 341.176 199.97 341.176 199.97L319.128 179.592L295.384 199.227C291.254 190.731 290.533 174.237 290.533 174.237C290.533 174.237 291.381 158.087 285.267 150.818L244.003 149.483Z" fill="#FFC4C0"/>
<path d="M243.512 149.469C243.512 149.469 214.137 198.492 213.586 218.627C213.408 225.124 217.292 233.407 217.292 233.407C217.292 233.407 245.606 237.755 261.557 231.772C277.508 225.788 284.453 213.764 291.424 203.633C294.502 199.156 296.834 198.028 296.834 198.028C296.834 198.028 291.424 177.272 291.339 174.959C291.339 174.959 292.67 159.822 285.31 150.818L243.512 149.469Z" fill="#263238"/>
<path d="M267.18 86.9723C258.437 94.4551 257.097 113.29 268.468 125.735C278.102 136.274 299.844 137.873 309.003 131.34C318.712 124.379 316.966 113.419 309.596 108.207C301.964 102.823 293.086 104.472 288.439 99.6387C286.217 97.3253 285.276 92.3559 282.164 88.8216C278.695 84.8803 271.665 83.131 267.18 86.9723Z" fill="#263238"/>
<path d="M284.394 92.1417C285.093 93.8321 285.958 95.4704 286.98 97.0398C287.996 98.6513 289.421 100.055 291.152 101.152C292.064 101.665 293.074 102.042 294.137 102.266C295.163 102.523 296.198 102.737 297.224 102.98C299.274 103.392 301.298 103.893 303.287 104.48C305.266 105.044 307.15 105.822 308.893 106.793C310.63 107.767 312.11 109.033 313.24 110.511C314.369 111.989 315.124 113.647 315.456 115.382C315.814 117.136 315.922 118.919 315.778 120.695C316.074 118.917 316.094 117.114 315.838 115.332C315.561 113.528 314.854 111.789 313.76 110.22C312.64 108.653 311.13 107.308 309.333 106.279C307.551 105.259 305.618 104.438 303.584 103.837C301.566 103.252 299.511 102.764 297.428 102.373C296.401 102.159 295.375 101.952 294.366 101.716C293.369 101.502 292.415 101.165 291.534 100.717C289.824 99.706 288.397 98.3925 287.353 96.8684C286.231 95.3556 285.242 93.7759 284.394 92.1417Z" fill="#263238"/>
<path d="M265.517 88.636C262.999 91.8503 261.088 95.3741 259.853 99.0818C258.564 102.803 258.121 106.696 258.547 110.556C258.786 112.487 259.308 114.386 260.098 116.211C260.28 116.67 260.493 117.121 260.734 117.56C260.944 118.011 261.182 118.452 261.447 118.881C261.718 119.309 261.973 119.745 262.252 120.166L263.177 121.394C265.761 124.582 269.056 127.317 272.878 129.448C272.03 128.827 271.106 128.249 270.266 127.606C269.421 126.972 268.614 126.302 267.849 125.6C266.279 124.232 264.883 122.729 263.686 121.116C261.273 117.905 259.783 114.265 259.335 110.484C258.883 106.704 259.256 102.885 260.438 99.2174C260.996 97.3699 261.704 95.5568 262.558 93.791C263.398 92.0157 264.387 90.293 265.517 88.636Z" fill="#263238"/>
<path d="M262.592 117.924C256.495 120.316 229.52 124.85 221.269 119.502C212.865 114.054 206.725 92.106 205.725 89.3714C203.393 82.9454 227.018 82.1743 227.713 83.9307C230.19 90.1782 233.005 106.607 236.143 107.493C242.74 109.292 249.109 109.549 259.725 111.148C267.12 112.234 269.333 115.282 262.592 117.924Z" fill="#FFC4C0"/>
<path d="M206.293 90.5352C205.199 88.4789 201.044 78.5686 200.654 75.6269C200.264 72.6852 199.857 64.1529 202.503 63.6674C205.148 63.1819 205.505 65.688 205.505 65.688C205.505 65.688 206.013 62.068 208.727 61.7824C211.441 61.4968 211.839 65.3953 211.839 65.3953C211.839 65.3953 212.687 61.7039 215.418 61.5825C218.148 61.4611 217.767 65.431 217.767 65.431C217.767 65.431 218.352 62.0252 220.65 62.732C223.423 63.5746 221.498 69.7435 222.219 72.9637C222.388 73.6777 226.806 87.5864 226.806 87.5864L206.293 90.5352Z" fill="#FFC4C0"/>
<path d="M217.792 65.0811C216.393 69.6221 216.715 71.8141 218.385 76.2195C218.385 76.3052 218.275 76.3623 218.233 76.2766C216.13 72.0926 215.256 69.3865 217.537 65.0097C217.648 64.7955 217.86 64.8598 217.792 65.0811Z" fill="#263238"/>
<path d="M212 65.0169C211.033 69.8435 211.364 72.2283 212.704 76.9407C212.704 76.9558 212.697 76.9703 212.684 76.981C212.671 76.9918 212.654 76.9978 212.636 76.9978C212.618 76.9978 212.601 76.9918 212.588 76.981C212.575 76.9703 212.568 76.9558 212.568 76.9407C210.787 72.4068 210.024 69.6936 211.72 64.9812C211.737 64.8027 212 64.7955 212 65.0169Z" fill="#263238"/>
<path d="M205.581 65.9165C205.047 70.6432 205.267 73.2635 207.277 77.7046C207.28 77.7248 207.276 77.7453 207.264 77.7631C207.252 77.7809 207.234 77.7949 207.212 77.803C207.189 77.8111 207.165 77.8129 207.141 77.808C207.118 77.8031 207.097 77.7919 207.082 77.776C204.538 73.4206 204.207 70.1505 205.386 65.9165C205.487 65.6309 205.615 65.6166 205.581 65.9165Z" fill="#263238"/>
<path d="M227.934 90.3638C227.934 90.3638 230.902 85.0445 231.597 82.4599C232.293 79.8752 230.673 69.4651 227.976 69.6079C224.5 69.8221 224.033 75.991 224.271 79.0398C224.271 79.0398 216.223 79.5325 214.748 83.895C213.272 88.2576 227.934 90.3638 227.934 90.3638Z" fill="#FFC4C0"/>
<path d="M227.044 69.972C224.042 72.114 224.661 76.0767 224.635 79.0469C224.638 79.0911 224.628 79.1351 224.606 79.1752C224.584 79.2153 224.55 79.2502 224.508 79.277C224.467 79.3037 224.418 79.3215 224.366 79.3287C224.314 79.3358 224.261 79.3323 224.211 79.3183C220.819 79.711 216.257 81.0961 214.646 83.7808C214.635 83.7947 214.618 83.8049 214.599 83.8095C214.58 83.8142 214.559 83.813 214.541 83.8062C214.523 83.7993 214.508 83.7873 214.499 83.7722C214.491 83.7571 214.488 83.7399 214.493 83.7237C215.757 80.6463 220.141 78.9827 223.821 78.7257C223.821 75.6769 223.389 71.6571 227.001 69.9292C227.044 69.9149 227.069 69.972 227.044 69.972Z" fill="#263238"/>
<path d="M229.537 88.129C229.537 88.129 233.963 105.801 235.837 106.593C238.949 107.914 256.927 110.27 263.321 111.391C269.715 112.512 274.091 115.968 258.538 120.623C243.512 125.121 227.162 127.685 219.089 125.121C209.286 122.001 200.365 103.037 200.365 103.037L229.537 88.129Z" fill="#6F42C1"/>
<path d="M204.097 107.1C215.68 100.631 228.256 94.962 230.427 93.8981C230.537 93.8482 230.597 94.0124 230.495 94.0624C228.451 95.0763 214.23 102.745 204.164 107.279C204.046 107.35 203.986 107.179 204.097 107.1Z" fill="#263238"/>
<path opacity="0.1" d="M268.96 115.411C268.18 116.875 265.178 118.638 258.538 120.623C243.512 125.121 227.162 127.685 219.089 125.121C217.968 124.746 216.917 124.237 215.969 123.608L268.96 115.411Z" fill="black"/>
<path d="M243.512 149.469L285.674 150.854C285.674 150.854 283.732 126.121 277.415 115.925C274.54 111.284 270.359 110.927 266.187 112.476C265.144 112.869 250.923 121.616 248.769 125.328C246.844 128.591 248.905 133.182 248.905 133.182L243.512 149.469Z" fill="#EBEBEB"/>
<path d="M264.915 112.812C264.915 112.812 258.767 118.774 258.326 121.152C258.081 123.05 258.081 124.965 258.326 126.864C261.892 125.679 265.384 124.345 268.791 122.865C272.267 121.201 274.642 112.698 274.642 112.698C274.642 112.698 279.637 116.675 281.757 124.707C283.402 130.905 287.116 149.89 287.396 150.447C287.676 151.004 293.332 162.713 292.602 174.666C292.602 174.666 296.707 189.389 298.674 191.045C300.641 192.701 303.94 190.645 303.94 190.645C303.94 190.645 292.602 223.696 271.131 229.201C252.077 234.113 211.398 221.925 212.246 215.157C213.094 208.388 226.238 177.807 242.282 149.469L248.591 133.339C248.591 133.339 245.835 128.613 248.727 124.936C251.619 121.259 262.66 113.662 264.915 112.812Z" fill="#6F42C1"/>
<path opacity="0.1" d="M240.128 196.143C238.899 199.127 237.728 202.119 236.422 205.082C235.761 206.575 235.167 208.095 234.582 209.616C233.938 211.163 233.53 212.773 233.37 214.407C233.37 214.421 233.363 214.435 233.351 214.445C233.339 214.455 233.323 214.461 233.306 214.461C233.289 214.461 233.273 214.455 233.261 214.445C233.249 214.435 233.242 214.421 233.242 214.407C233.287 212.608 233.572 210.819 234.09 209.073C234.809 205.892 235.856 202.769 237.22 199.742C237.932 198.249 238.737 196.778 239.585 195.329C240.433 193.88 241.281 192.409 242.206 191.045C242.274 190.945 242.494 191.002 242.443 191.124C241.68 192.78 240.832 194.436 240.128 196.143Z" fill="black"/>
<path opacity="0.1" d="M272.293 203.569C272.293 201.427 272.293 199.342 272.454 197.228C272.606 195.365 272.785 193.501 273.09 191.652C273.395 189.803 273.87 187.932 274.379 186.09C275.388 182.413 276.55 178.75 277.822 175.13C277.118 177.165 276.473 179.214 275.965 181.292C275.117 184.962 274.625 188.667 273.98 192.366C273.336 196.064 272.734 199.82 272.394 203.554C272.42 203.633 272.293 203.64 272.293 203.569Z" fill="black"/>
<path opacity="0.1" d="M282.63 223.204C282.342 223.439 282.053 223.66 281.782 223.882C281.273 223.575 280.773 223.261 280.281 222.946C275.948 220.162 271.216 216.963 269.308 212.515C268.514 210.356 268.184 208.095 268.333 205.839C268.427 203.517 268.688 201.202 269.113 198.906C269.113 198.82 269.299 198.835 269.282 198.906C268.924 201.431 268.81 203.977 268.943 206.517C269.132 208.724 269.866 210.874 271.097 212.829C272.373 214.735 273.973 216.474 275.846 217.991C277.974 219.848 280.289 221.533 282.63 223.204Z" fill="black"/>
<path opacity="0.1" d="M256.808 192.516C255.469 195.643 254.188 198.785 253.111 201.983C252.58 203.564 252.105 205.151 251.686 206.746C251.271 208.359 250.966 209.987 250.618 211.608C250.262 213.207 250.032 214.824 249.931 216.449C249.88 217.284 249.88 218.12 249.931 218.955C249.982 219.791 249.872 220.576 249.931 221.39C249.931 221.504 249.736 221.504 249.719 221.39C249.626 220.876 249.465 220.383 249.346 219.883C249.263 219.441 249.209 218.995 249.185 218.548C249.092 217.627 249.058 216.706 249.041 215.792C248.984 213.96 249.063 212.126 249.278 210.302C249.782 207.001 250.633 203.744 251.822 200.57C252.942 197.385 254.256 194.251 255.604 191.131C257.012 187.882 258.377 184.619 260.073 181.47C261.769 178.321 263.414 174.98 264.924 171.681C264.924 171.603 265.102 171.631 265.068 171.681C264.296 173.523 263.609 175.394 262.855 177.236C262.1 179.078 261.54 180.978 260.828 182.827C260.2 184.469 259.573 186.09 258.869 187.711C258.165 189.331 257.495 190.924 256.808 192.516Z" fill="black"/>
<path opacity="0.1" d="M240.739 228.102L239.433 227.823C238.402 225.511 237.763 223.088 237.533 220.626C237.519 219.684 237.573 218.742 237.694 217.806C237.762 216.927 237.889 216.049 238.042 215.178C238.364 213.375 238.933 211.609 239.738 209.916C239.738 209.852 239.891 209.916 239.865 209.959C239.036 211.787 238.564 213.716 238.466 215.671C238.418 216.528 238.446 217.387 238.551 218.241C238.67 219.098 238.899 219.948 239.026 220.812C239.27 222.534 239.629 224.243 240.103 225.931C240.289 226.688 240.51 227.402 240.739 228.102Z" fill="black"/>
<path opacity="0.1" d="M276.787 227.052C275.015 227.961 273.115 228.681 271.131 229.194C267.821 229.98 264.394 230.36 260.955 230.322C260.311 229.572 259.709 228.816 259.132 228.03C257.06 225.306 255.698 222.242 255.138 219.041C254.587 215.328 255.655 211.572 256.588 207.967C257.546 204.233 264.373 188.018 265.492 189.224C266.849 190.695 262.99 207.874 262.753 209.93C262.421 211.843 262.826 213.794 263.906 215.499C265.149 217.118 266.6 218.617 268.231 219.969C269.859 221.454 271.538 222.899 273.268 224.303C274.404 225.253 275.6 226.145 276.787 227.052Z" fill="black"/>
<path opacity="0.1" d="M300.514 191.68C300.055 192.382 299.554 193.064 299.013 193.722C297.64 195.472 296.249 197.214 294.867 198.949C293.484 200.684 292.026 202.469 290.627 204.233C289.465 205.661 288.413 207.181 286.624 208.145C286.555 208.178 286.474 208.192 286.395 208.184C286.315 208.175 286.241 208.146 286.183 208.099C286.125 208.053 286.087 207.992 286.073 207.926C286.059 207.86 286.071 207.791 286.107 207.731C287.175 205.91 288.405 204.161 289.558 202.369C291.572 199.44 293.403 196.426 295.045 193.337C295.833 191.751 296.501 190.124 297.046 188.467C297.046 188.403 297.088 188.332 297.114 188.268C297.451 189.255 297.982 190.189 298.683 191.031C299.169 191.441 299.826 191.674 300.514 191.68Z" fill="black"/>
<path opacity="0.1" d="M284.241 148.305C281.612 149.176 278.992 150.069 276.287 150.761C273.641 151.42 270.943 151.923 268.214 152.268C263.428 152.983 258.51 152.739 253.857 151.554C251.216 150.767 248.795 149.532 246.743 147.927C246.683 147.884 246.599 147.927 246.658 148.012C249.892 151.19 254.438 153.216 259.378 153.681C264.822 154.281 270.114 153.31 275.159 151.625C278.22 150.604 281.256 149.483 284.275 148.398C284.335 148.376 284.309 148.284 284.241 148.305Z" fill="black"/>
<path d="M263.219 134.032C261.427 133.728 259.61 133.537 257.784 133.461C256.876 133.461 255.977 133.461 255.07 133.461C254.62 133.461 254.171 133.461 253.713 133.461C253.24 133.469 252.768 133.431 252.305 133.347C252.305 133.347 252.246 133.389 252.305 133.397C252.727 133.521 253.157 133.621 253.594 133.697C254.023 133.757 254.457 133.793 254.892 133.804C255.808 133.839 256.732 133.839 257.656 133.868C259.505 133.918 261.362 133.975 263.211 134.139C263.279 134.161 263.304 134.046 263.219 134.032Z" fill="#263238"/>
<path d="M267.069 136.374C265.685 135.89 264.269 135.473 262.829 135.125C262.108 134.953 261.371 134.818 260.633 134.696L259.573 134.539C259.183 134.489 258.776 134.475 258.394 134.418C258.352 134.418 258.335 134.468 258.394 134.475C258.767 134.539 259.115 134.653 259.48 134.732L260.565 134.975C261.294 135.139 262.015 135.31 262.744 135.467C264.203 135.789 265.645 136.11 267.086 136.474C267.102 136.472 267.116 136.465 267.126 136.454C267.135 136.444 267.139 136.43 267.137 136.417C267.135 136.404 267.126 136.392 267.114 136.384C267.101 136.376 267.085 136.372 267.069 136.374Z" fill="#263238"/>
<path d="M276.168 121.309C285.895 133.018 300.964 150.433 309.893 150.276C317.975 150.14 330.864 144.271 344.907 137.981C347.706 136.724 335.011 118.967 332.187 120.552C326.65 123.665 314.837 131.976 310.987 132.518C309.351 132.74 290.974 121.344 280.62 115.868C271.564 111.056 274.277 119.031 276.168 121.309Z" fill="#FFC4C0"/>
<path d="M357.186 132.711C353.26 135.439 340.794 139.716 337.911 139.594C335.028 139.473 328.515 124.429 330.101 122.322C331.687 120.216 345.747 111.898 350.945 111.841C356.143 111.784 361.248 129.891 357.186 132.711Z" fill="#FFC4C0"/>
<path d="M337.843 100.517C337.843 100.517 344.415 94.9906 352.692 99.2674C352.692 99.2674 353.048 120.052 353.277 121.309C353.506 122.565 360.239 145.785 360.239 145.785C360.239 145.785 354.006 149.49 344.356 146.463C344.356 146.463 345.916 122.644 345.755 121.944C345.594 121.244 337.843 100.517 337.843 100.517Z" fill="#EBEBEB"/>
<path d="M360.239 145.785C360.239 145.785 351.199 141.501 344.356 146.463C344.356 146.463 351.445 149.94 360.239 145.785Z" fill="#DBDBDB"/>
<path d="M353.277 121.309C353.472 121.18 353.277 121.109 353.124 121.08C352.955 121.043 352.782 121.017 352.607 121.002C352.251 120.966 351.895 120.952 351.539 120.944C350.826 120.929 350.112 120.946 349.402 120.994C348.689 121.037 347.977 121.109 347.273 121.202C346.928 121.248 346.588 121.317 346.256 121.409C345.959 121.494 345.526 121.623 345.755 121.944C345.663 121.9 345.593 121.829 345.56 121.744C345.543 121.65 345.567 121.553 345.628 121.473C345.738 121.322 345.886 121.193 346.06 121.094C346.384 120.913 346.735 120.769 347.104 120.666C347.825 120.461 348.574 120.331 349.334 120.28C350.094 120.232 350.858 120.271 351.606 120.395C351.984 120.452 352.354 120.543 352.709 120.666C352.891 120.727 353.065 120.807 353.226 120.902C353.32 120.95 353.396 121.019 353.447 121.102C353.463 121.124 353.472 121.15 353.472 121.177C353.472 121.203 353.463 121.229 353.447 121.251C353.397 121.283 353.339 121.303 353.277 121.309Z" fill="#6F42C1"/>
<path d="M353.353 121.63C353.54 121.487 353.353 121.437 353.175 121.409C353.001 121.383 352.826 121.369 352.649 121.366C352.285 121.366 351.929 121.366 351.564 121.366C350.843 121.366 350.131 121.451 349.427 121.544C348.723 121.637 347.994 121.744 347.29 121.88C346.944 121.94 346.603 122.024 346.272 122.13C346.111 122.172 345.959 122.237 345.823 122.322C345.788 122.34 345.758 122.363 345.736 122.392C345.714 122.42 345.699 122.453 345.694 122.487C345.69 122.521 345.694 122.555 345.707 122.587C345.721 122.619 345.743 122.649 345.772 122.672C345.724 122.655 345.68 122.628 345.645 122.595C345.61 122.562 345.584 122.522 345.569 122.48C345.551 122.383 345.576 122.284 345.636 122.201C345.749 122.054 345.893 121.926 346.06 121.823C346.378 121.63 346.722 121.472 347.087 121.351C347.796 121.111 348.536 120.938 349.291 120.837C350.054 120.748 350.827 120.748 351.589 120.837C351.975 120.875 352.356 120.944 352.726 121.044C352.915 121.097 353.097 121.167 353.268 121.251C353.365 121.295 353.447 121.359 353.506 121.437C353.512 121.458 353.513 121.48 353.508 121.502C353.504 121.523 353.494 121.544 353.48 121.562C353.466 121.58 353.447 121.595 353.425 121.607C353.403 121.619 353.379 121.627 353.353 121.63Z" fill="#6F42C1"/>
<path d="M353.421 121.887C353.457 121.863 353.483 121.831 353.497 121.794C353.413 121.787 353.328 121.787 353.243 121.794L352.717 121.88L351.657 122.065C350.953 122.194 350.241 122.294 349.537 122.401C348.833 122.508 348.113 122.587 347.4 122.658C347.044 122.701 346.688 122.737 346.34 122.794C346.172 122.814 346.007 122.85 345.848 122.901C345.696 122.944 345.602 123.044 345.747 123.194C345.698 123.177 345.655 123.149 345.622 123.114C345.589 123.079 345.568 123.038 345.56 122.994C345.564 122.945 345.58 122.897 345.608 122.854C345.635 122.81 345.674 122.773 345.721 122.744C345.867 122.633 346.03 122.54 346.205 122.465C346.544 122.328 346.896 122.214 347.256 122.123C348.661 121.766 350.114 121.56 351.581 121.509C351.954 121.509 352.319 121.509 352.692 121.509C352.88 121.519 353.067 121.541 353.251 121.573C353.352 121.59 353.449 121.618 353.54 121.658C353.569 121.673 353.595 121.693 353.616 121.716C353.628 121.729 353.634 121.745 353.634 121.762C353.634 121.779 353.628 121.795 353.616 121.808C353.559 121.847 353.492 121.874 353.421 121.887Z" fill="#6F42C1"/>
<path d="M342.974 113.283C342.083 115.425 345.594 115.09 345.594 115.09C345.594 115.09 340.684 116.596 340.777 119.109C340.87 121.623 345.094 120.987 345.399 120.952C345.136 121.037 340.667 122.53 341.066 125.036C341.49 127.649 345.619 126.464 345.882 126.421C345.67 126.564 342.855 128.484 343.677 130.334C345.085 133.518 352.446 128.777 355.66 129.255C355.66 129.255 356.872 132.79 356.898 132.925C356.898 132.925 362.452 129.684 362.978 125.992C363.063 125.457 362.929 124.914 362.598 124.451C362.266 123.989 361.757 123.636 361.155 123.451C361.155 123.451 363.631 122.251 363.385 120.266C363.258 119.238 361.248 118.524 361.248 118.524C361.791 118.226 362.226 117.808 362.505 117.315C362.785 116.823 362.899 116.275 362.834 115.732C362.562 114.304 360.553 113.812 360.553 113.812C360.553 113.812 361.867 112.098 361.036 110.741C359.331 107.985 344.898 108.699 342.974 113.283Z" fill="#FFC4C0"/>
<path d="M361.248 118.481C361.307 118.481 361.307 118.403 361.248 118.396C355.721 117.573 350.026 118.444 345.195 120.852C345.034 120.937 344.983 121.159 345.195 121.066C348.587 119.566 356.61 118.374 361.248 118.481Z" fill="#263238"/>
<path d="M345.619 126.699C350.368 124.386 355.516 123.586 360.951 123.408C361.019 123.408 361.011 123.322 360.951 123.315C358.263 122.794 354.82 123.208 352.166 123.729C349.694 124.174 347.404 125.159 345.526 126.585C345.45 126.621 345.518 126.749 345.619 126.699Z" fill="#263238"/>
<path d="M345.594 115.09C344.681 115.449 343.812 115.882 342.999 116.382C342.183 116.834 341.527 117.463 341.1 118.203C340.922 118.549 340.904 118.938 341.049 119.295C341.204 119.655 341.463 119.976 341.803 120.23C342.166 120.453 342.579 120.609 343.017 120.688C343.455 120.768 343.908 120.77 344.347 120.695L346.527 120.395L344.602 121.316C343.744 121.721 342.968 122.239 342.304 122.851C341.979 123.121 341.725 123.445 341.56 123.803C341.395 124.161 341.322 124.545 341.346 124.929C341.374 125.282 341.545 125.616 341.831 125.876C342.116 126.136 342.498 126.305 342.914 126.357C343.855 126.463 344.813 126.365 345.696 126.071L348.163 125.357L346.128 126.728C345.56 127.11 345.053 127.551 344.619 128.042C344.187 128.494 343.922 129.042 343.856 129.62C343.844 129.88 343.916 130.137 344.066 130.365C344.215 130.593 344.436 130.782 344.704 130.912C345.357 131.125 346.071 131.172 346.756 131.048C348.247 130.811 349.713 130.474 351.14 130.041C351.869 129.841 352.598 129.648 353.345 129.477C354.081 129.269 354.862 129.199 355.634 129.27C354.872 129.273 354.117 129.402 353.413 129.648C352.692 129.862 351.979 130.105 351.267 130.362C349.847 130.888 348.37 131.3 346.858 131.59C346.041 131.759 345.183 131.724 344.39 131.49C343.976 131.321 343.629 131.054 343.391 130.722C343.153 130.39 343.035 130.007 343.05 129.62C343.104 128.902 343.415 128.215 343.94 127.649C344.41 127.096 344.963 126.596 345.586 126.164L346.018 126.792C344.985 127.156 343.856 127.284 342.745 127.163C342.131 127.087 341.568 126.835 341.15 126.449C340.76 126.054 340.521 125.569 340.464 125.057C340.433 124.572 340.526 124.087 340.735 123.634C340.944 123.181 341.265 122.77 341.676 122.43C342.41 121.763 343.27 121.203 344.22 120.773L344.475 121.394C343.921 121.475 343.354 121.452 342.812 121.329C342.27 121.206 341.767 120.984 341.337 120.68C340.939 120.35 340.647 119.939 340.489 119.488C340.325 119.027 340.37 118.53 340.616 118.096C341.128 117.318 341.889 116.677 342.813 116.246C343.681 115.769 344.615 115.38 345.594 115.09Z" fill="#263238"/>
<path d="M332.196 120.552C332.196 120.552 342.117 104.401 347.714 110.756C349.41 112.648 353.531 122.073 351.293 122.815C348.409 123.765 345.806 120.102 344.602 117.589C344.602 117.589 342.151 123.479 336.766 123.265C335.782 123.211 334.834 122.929 334.027 122.45C333.221 121.971 332.587 121.314 332.196 120.552Z" fill="#FFC4C0"/>
<path d="M347.205 110.256C347.961 110.933 348.598 111.697 349.096 112.526C349.613 113.345 350.063 114.192 350.444 115.061C351.249 116.797 351.87 118.589 352.302 120.416C352.415 120.903 352.446 121.4 352.395 121.894C352.358 122.176 352.251 122.449 352.081 122.694C351.988 122.829 351.867 122.95 351.725 123.051C351.584 123.152 351.423 123.231 351.25 123.286C350.629 123.479 349.946 123.479 349.325 123.286C348.761 123.104 348.239 122.841 347.782 122.508C346.933 121.862 346.222 121.099 345.679 120.252C345.125 119.437 344.649 118.587 344.254 117.71H344.966C344.66 118.373 344.277 119.01 343.822 119.609C343.383 120.214 342.869 120.776 342.287 121.287C341.705 121.796 341.036 122.23 340.302 122.572C339.578 122.919 338.78 123.142 337.953 123.229C338.739 123.055 339.485 122.77 340.158 122.387C340.823 122.003 341.42 121.541 341.93 121.016C342.447 120.498 342.901 119.938 343.287 119.345C343.673 118.759 343.993 118.145 344.246 117.51L344.542 116.725L344.958 117.489C345.381 118.317 345.868 119.121 346.416 119.895C346.936 120.661 347.597 121.353 348.375 121.944C348.698 122.227 349.101 122.435 349.546 122.549C349.992 122.663 350.465 122.678 350.919 122.594C351.632 122.408 351.598 121.401 351.454 120.545C351.283 119.65 351.06 118.764 350.784 117.889C350.521 116.996 350.241 116.118 349.936 115.247C349.343 113.472 348.422 111.788 347.205 110.256Z" fill="#263238"/>
<path d="M329.389 122.094C329.389 122.094 312.513 131.94 310.487 131.497C307.095 130.783 285.411 117.646 279.713 114.94C274.014 112.234 272.081 115.989 275.396 120.702C284.105 133.082 298.411 152.482 310.97 154.517C317.754 155.609 341.498 148.091 341.498 148.091L329.389 122.094Z" fill="#6F42C1"/>
<path d="M284.597 132.911C284.317 132.597 284.148 132.197 283.902 131.869L283.113 130.791C282.588 130.105 282.07 129.412 281.562 128.713C280.535 127.328 279.416 125.992 278.339 124.636C279.28 126.064 280.196 127.492 281.256 128.92C281.282 128.947 281.304 128.975 281.324 129.006L280.646 128.441L279.246 127.263C279.246 127.263 279.17 127.263 279.196 127.306C279.62 127.727 280.044 128.142 280.518 128.527C280.764 128.727 281.002 128.927 281.256 129.113L281.604 129.37L282.8 130.912C283.071 131.269 283.359 131.626 283.648 131.961C283.936 132.297 284.309 132.604 284.555 132.961C284.546 133.011 284.648 132.961 284.597 132.911Z" fill="#263238"/>
<path d="M324.784 126.378C330.075 136.474 334.256 147.155 335.121 149.033C335.121 149.119 334.968 149.14 334.926 149.033C334.129 147.277 327.939 134.939 324.563 126.378C324.555 126.285 324.784 126.271 324.784 126.378Z" fill="#263238"/>
<path d="M266.993 110.227C272.759 109.163 282.791 112.683 283.529 116.346C284.148 119.481 284.25 143.028 285.072 149.19C285.895 155.352 308.29 181.413 308.29 181.413L297.911 180.842L296.113 188.839C296.113 188.839 276.448 166.041 272.581 155.366C268.714 144.692 275.71 114.497 274.65 112.969C273.59 111.441 269.215 111.648 267.23 111.955C265.246 112.262 262.1 115.525 260.506 118.774C258.911 122.023 252.704 142.964 252.611 150.654C252.517 158.344 264.788 187.468 264.788 187.468L255.782 184.062L249.473 191.373C249.473 191.373 240.043 162.992 239.653 150.44C239.407 142.457 246.437 128.092 254.163 118.51C258.589 113.055 263.524 110.863 266.993 110.227Z" fill="#455A64"/>
<path d="M274.184 113.433C273.802 114.04 268.782 117.424 265.305 116.496C264.169 116.189 265.874 110.913 265.874 110.913V110.499L266.153 104.701L275.083 102.295L276.363 101.995C276.363 101.995 276.16 103.58 275.888 105.565C275.888 105.658 275.888 105.751 275.846 105.85C275.804 105.95 275.846 106.065 275.846 106.165C275.846 106.465 275.77 106.764 275.727 107.057C275.685 107.35 275.66 107.507 275.609 107.771C275.558 108.035 275.532 108.235 275.49 108.485C275.188 110.158 274.752 111.811 274.184 113.433Z" fill="#FFC4C0"/>
<path d="M275.905 105.543C274.763 106.932 273.275 108.094 271.546 108.95C269.817 109.806 267.887 110.334 265.89 110.499L266.17 104.701L275.1 102.295L276.38 101.995C276.38 101.995 276.177 103.58 275.905 105.543Z" fill="#263238"/>
<path d="M259.912 92.3845C253.484 101.002 258.886 105.236 261.099 106.386C263.1 107.443 270.088 110.834 277.542 102.816C284.996 94.7978 282.265 89.557 277.839 86.9366C273.412 84.3163 266.348 83.7665 259.912 92.3845Z" fill="#FFC4C0"/>
<path d="M262.464 91.6633C262.727 91.7633 262.99 91.8133 263.262 91.8918C263.523 92.0032 263.821 92.0408 264.11 91.9989C264.198 91.9681 264.271 91.9136 264.319 91.8438C264.367 91.7741 264.385 91.693 264.372 91.6133C264.322 91.4593 264.225 91.3192 264.089 91.2075C263.953 91.0958 263.785 91.0166 263.601 90.9779C263.238 90.8602 262.836 90.8602 262.473 90.9779C262.398 91.0097 262.334 91.0582 262.29 91.1183C262.245 91.1784 262.221 91.2476 262.22 91.3184C262.22 91.3892 262.242 91.4589 262.285 91.5197C262.328 91.5805 262.39 91.6302 262.464 91.6633Z" fill="#263238"/>
<path d="M269.596 95.2262C269.383 95.076 269.179 94.9163 268.986 94.7478C268.742 94.6055 268.56 94.3999 268.468 94.1623C268.455 94.0826 268.475 94.0014 268.524 93.9325C268.574 93.8635 268.65 93.8111 268.74 93.7839C268.924 93.748 269.116 93.7542 269.297 93.8019C269.477 93.8496 269.639 93.937 269.766 94.0552C270.068 94.2631 270.268 94.5584 270.326 94.8835C270.333 94.9575 270.315 95.0317 270.274 95.0974C270.233 95.163 270.17 95.2171 270.093 95.2533C270.016 95.2895 269.928 95.3062 269.84 95.3014C269.752 95.2966 269.667 95.2705 269.596 95.2262Z" fill="#263238"/>
<path d="M266.425 96.5399C266.425 96.5399 266.425 96.5971 266.425 96.6256C265.967 97.1968 265.577 97.918 266.035 98.4463C266.035 98.4463 266.035 98.4963 266.035 98.482C265.322 97.9822 265.882 97.0255 266.425 96.5399Z" fill="#263238"/>
<path d="M267.51 96.2615C268.68 96.7827 267.358 98.7177 266.264 98.2321C265.17 97.7466 266.526 95.8188 267.51 96.2615Z" fill="#263238"/>
<path d="M267.892 96.5828C268.019 96.7899 268.078 97.0755 268.307 97.2183C268.456 97.2751 268.618 97.3003 268.781 97.2915C268.944 97.2828 269.101 97.2405 269.24 97.1683C269.24 97.1683 269.282 97.1683 269.24 97.2111C269.154 97.4052 268.983 97.5646 268.763 97.6573C268.543 97.75 268.289 97.7692 268.053 97.7109C267.841 97.6072 267.682 97.4412 267.607 97.2447C267.532 97.0483 267.546 96.8354 267.646 96.6471C267.697 96.5685 267.841 96.4971 267.892 96.5828Z" fill="#263238"/>
<path d="M262.549 94.4908C262.549 94.4908 262.482 94.4908 262.465 94.4908C262.083 95.1048 261.515 95.7545 260.769 95.6403C261.574 95.9902 262.303 95.1262 262.549 94.4908Z" fill="#263238"/>
<path d="M262.337 93.534C261.235 92.9128 259.836 94.8121 260.853 95.3904C261.871 95.9687 263.262 94.0766 262.337 93.534Z" fill="#263238"/>
<path d="M261.778 93.434C261.523 93.434 261.209 93.534 260.989 93.434C260.769 93.3341 260.701 93.0199 260.684 92.72C260.684 92.72 260.684 92.72 260.633 92.72C260.474 92.8698 260.382 93.0614 260.373 93.2621C260.363 93.4628 260.437 93.6599 260.582 93.8196C260.913 94.0766 261.43 93.9124 261.795 93.6054C261.862 93.5697 261.879 93.434 261.778 93.434Z" fill="#263238"/>
<path d="M261.082 99.1675C261.114 99.6528 261.295 100.123 261.608 100.531C261.784 100.748 262.036 100.913 262.329 101.002C262.982 101.195 263.329 100.781 263.525 100.36C263.628 100.13 263.696 99.8901 263.728 99.6459C262.808 99.7283 261.881 99.5607 261.082 99.1675Z" fill="#263238"/>
<path d="M261.608 100.531C261.784 100.748 262.036 100.913 262.329 101.002C262.982 101.195 263.329 100.781 263.524 100.36C263.229 100.201 262.879 100.132 262.53 100.163C262.182 100.194 261.857 100.324 261.608 100.531Z" fill="#FF9BBC"/>
<path d="M261.693 97.8751C261.693 97.8751 260.921 98.6962 260.624 99.1175C260.624 99.1532 260.701 99.2317 260.87 99.3245C261.253 99.6012 261.718 99.7847 262.216 99.8551C262.714 99.9256 263.225 99.8804 263.694 99.7244C263.705 99.7207 263.714 99.7143 263.721 99.706C263.728 99.6977 263.731 99.688 263.731 99.678C263.731 99.668 263.728 99.6582 263.721 99.65C263.714 99.6417 263.705 99.6353 263.694 99.6316C262.797 99.6836 261.904 99.4881 261.15 99.0746C261.192 98.939 262.524 97.7109 262.447 97.6466C262.041 97.4852 261.61 97.37 261.167 97.3039C262.719 95.5618 264.559 94.0409 266.102 92.3059C266.153 92.2417 266.051 92.1703 265.992 92.2131C263.928 93.7897 262.056 95.5358 260.404 97.4253C260.192 97.6538 261.438 97.818 261.693 97.8751Z" fill="#263238"/>
<path d="M277.11 103.066C275.973 102.445 274.735 98.2607 277.847 93.4269C277.847 93.4269 275.405 97.9323 275.371 98.7462C275.337 99.5602 274.684 96.3972 277.127 92.4702C275.1 92.6544 273.053 92.5943 271.046 92.2917C268.502 91.7704 267.222 91.1278 267.154 90.9208C267.086 90.7137 270.843 91.3849 272.242 90.9208C272.242 90.9208 264.966 90.4424 262.202 89.35C261.88 89.2286 265.026 84.659 270.639 84.352C276.253 84.045 281.18 88.636 281.977 90.8994C281.977 90.8994 283.546 91.8561 283.851 95.4904C284.199 99.4245 278.339 103.73 277.11 103.066Z" fill="#263238"/>
<path d="M275.185 106.008C274.994 105.989 274.806 105.954 274.625 105.9C274.441 105.853 274.267 105.784 274.108 105.693C273.901 105.58 273.725 105.432 273.59 105.258C273.487 105.12 273.407 104.971 273.353 104.815C273.267 104.584 273.233 104.342 273.251 104.101L275.32 101.959C275.32 101.959 279.391 100.153 280.485 101.517C281.578 102.88 277.296 106.222 275.185 106.008Z" fill="#FFC4C0"/>
<path d="M279.238 102.452C279.238 102.452 279.238 102.502 279.238 102.495C278.516 102.487 277.801 102.608 277.138 102.847C276.475 103.087 275.879 103.441 275.388 103.887C275.526 103.814 275.681 103.766 275.843 103.748C276.005 103.73 276.169 103.741 276.325 103.781C276.481 103.821 276.625 103.889 276.747 103.98C276.87 104.071 276.967 104.183 277.033 104.308C277.033 104.308 276.991 104.373 276.957 104.351C276.774 104.197 276.539 104.095 276.284 104.058C276.028 104.02 275.766 104.051 275.532 104.144C275.141 104.306 274.772 104.502 274.43 104.73C274.311 104.801 274.142 104.658 274.252 104.572C275.049 103.194 277.44 101.845 279.238 102.452Z" fill="#263238"/>
<path d="M275.269 105.565C275.2 105.637 275.106 105.691 275.001 105.718C274.895 105.746 274.782 105.747 274.676 105.72C274.57 105.694 274.476 105.642 274.405 105.57C274.334 105.499 274.29 105.411 274.278 105.319C274.266 105.226 274.287 105.133 274.338 105.05C274.389 104.968 274.469 104.9 274.566 104.855C274.663 104.81 274.773 104.791 274.883 104.799C274.993 104.807 275.098 104.843 275.185 104.901C275.242 104.94 275.29 104.988 275.325 105.042C275.361 105.097 275.383 105.156 275.391 105.218C275.399 105.28 275.392 105.342 275.371 105.402C275.35 105.461 275.316 105.517 275.269 105.565Z" fill="white"/>
<path d="M276.677 105.372C276.645 105.406 276.605 105.434 276.56 105.455C276.515 105.476 276.465 105.489 276.414 105.494C276.363 105.499 276.311 105.495 276.261 105.482C276.212 105.47 276.166 105.45 276.126 105.422C276.058 105.364 276.018 105.286 276.013 105.205C276.009 105.123 276.039 105.043 276.099 104.979C276.16 104.915 276.246 104.872 276.341 104.858C276.436 104.843 276.535 104.859 276.618 104.901C276.659 104.928 276.694 104.962 276.719 105.001C276.745 105.039 276.761 105.082 276.767 105.126C276.772 105.17 276.767 105.214 276.752 105.257C276.736 105.299 276.711 105.338 276.677 105.372Z" fill="white"/>
<path d="M301.43 101.881C300.755 101.882 300.085 101.791 299.446 101.609C298.76 101.447 298.131 101.147 297.613 100.735C297.095 100.324 296.702 99.8128 296.469 99.246C296.054 98.075 296.91 96.697 297.809 95.2405C298.852 93.5483 299.938 91.8061 298.971 90.421C297.139 87.8006 289.965 85.5158 289.897 85.4872L290.118 84.9874C290.423 85.0874 297.58 87.365 299.514 90.1496C300.658 91.7847 299.446 93.7197 298.369 95.4904C297.521 96.847 296.741 98.1322 297.08 99.0604C297.282 99.5418 297.619 99.9752 298.062 100.324C298.504 100.673 299.04 100.928 299.624 101.067C300.291 101.282 301.007 101.365 301.718 101.312C302.429 101.259 303.117 101.07 303.728 100.76L304.101 101.195C303.317 101.652 302.383 101.892 301.43 101.881Z" fill="#263238"/>
<path d="M303.431 100.995C303.445 100.352 303.646 99.7223 304.017 99.1603C304.777 98.3019 305.654 97.5207 306.628 96.8327L307.044 97.2397C306.12 97.8819 305.292 98.6155 304.576 99.4245C304.261 99.904 304.086 100.44 304.067 100.988L303.431 100.995Z" fill="#6F42C1"/>
<path d="M305.696 101.545C305.128 101.535 304.562 101.497 304 101.431L304.093 100.902C304.78 100.991 305.476 101.023 306.17 100.995C307.272 100.614 308.296 100.092 309.206 99.4459L309.596 99.8672C309.35 100.024 307.163 101.445 306.204 101.524C306.035 101.538 305.865 101.545 305.696 101.545Z" fill="#6F42C1"/>
<path d="M304.135 101.21L303.593 100.931C304.116 100.171 304.724 99.4534 305.407 98.789L307.951 96.9398L308.367 97.3468C308.367 97.3468 306.349 98.7748 305.823 99.196C305.189 99.8228 304.624 100.497 304.135 101.21Z" fill="#6F42C1"/>
<path d="M304.068 101.388L303.83 100.888C304.866 100.559 305.865 100.153 306.815 99.6744C307.341 99.2889 308.96 98.3892 309.028 98.3535L309.384 98.7962C309.384 98.7962 307.731 99.7173 307.239 100.081C306.229 100.594 305.168 101.031 304.068 101.388Z" fill="#6F42C1"/>
<path d="M277.237 89.5642L259.505 74.9058L285.047 78.1259L300.701 94.7621L277.237 89.5642Z" fill="#6F42C1"/>
<path opacity="0.1" d="M277.237 89.5642L259.505 74.9058L285.047 78.1259L300.701 94.7621L277.237 89.5642Z" fill="black"/>
<path d="M265.424 85.9442L268.316 80.3107C268.316 80.3107 276.372 80.9248 281.316 83.3238C286.259 85.7228 290.864 90.678 290.864 90.678L286.565 96.1758C286.565 96.1758 280.196 91.5348 276.151 89.6641C272.684 88.2124 269.1 86.9693 265.424 85.9442Z" fill="#6F42C1"/>
<path d="M127.42 282.244C127.42 282.244 127.42 310.883 127.42 310.904C127.42 316.381 127.471 321.186 127.794 323.663C127.79 323.677 127.79 323.692 127.794 323.706C127.793 324.293 127.953 324.872 128.26 325.398V325.434C130.185 326.548 182.159 328.047 183.99 327.576C185.822 327.105 184.406 322.678 182.447 321.264C180.488 319.851 160.882 311.782 160.882 311.782L160.552 283.158L127.42 282.244Z" fill="#EB9481"/>
<path d="M127.429 305.028V310.904C127.429 316.381 127.48 321.186 127.802 323.663C127.798 323.677 127.798 323.692 127.802 323.706C127.877 324.284 128.033 324.852 128.268 325.398V325.434C130.193 326.548 182.167 328.047 183.999 327.576C185.831 327.105 184.415 322.678 182.456 321.264C180.497 319.851 160.891 311.782 160.891 311.782L160.984 305.82L127.429 305.028Z" fill="white"/>
<path d="M184.058 327.583C182.218 328.047 130.253 326.548 128.311 325.441C127.573 325.027 127.387 318.637 127.463 310.911C127.463 310.833 127.463 310.754 127.463 310.669L161.001 311.325V311.804C161.001 311.804 180.531 319.872 182.507 321.3C184.482 322.728 185.89 327.126 184.058 327.583Z" fill="#A6A6A6"/>
<path d="M183.533 325.87C174.781 325.434 139.437 324.384 130.736 324.513C130.668 324.513 130.668 324.556 130.736 324.563C139.403 325.148 174.764 325.991 183.533 325.991C183.719 325.991 183.719 325.877 183.533 325.87Z" fill="#263238"/>
<path d="M163.757 311.961C160.365 311.318 156.125 311.64 153.378 313.632C153.276 313.71 153.378 313.839 153.522 313.81C156.841 313.011 160.253 312.513 163.698 312.325C163.751 312.325 163.802 312.308 163.842 312.279C163.882 312.249 163.908 312.209 163.915 312.165C163.922 312.12 163.91 312.075 163.881 312.038C163.852 312 163.808 311.973 163.757 311.961Z" fill="#263238"/>
<path d="M166.208 313.296C162.816 312.653 158.576 312.975 155.837 314.967C155.727 315.045 155.837 315.174 155.973 315.145C159.292 314.347 162.704 313.849 166.149 313.66C166.202 313.66 166.253 313.644 166.293 313.614C166.333 313.585 166.359 313.544 166.366 313.5C166.373 313.456 166.361 313.411 166.332 313.373C166.303 313.336 166.259 313.308 166.208 313.296Z" fill="#263238"/>
<path d="M168.633 314.631C165.241 313.989 161.001 314.31 158.254 316.302C158.152 316.381 158.254 316.509 158.389 316.48C161.709 315.682 165.12 315.184 168.565 314.995C168.619 314.997 168.672 314.982 168.714 314.953C168.755 314.924 168.783 314.883 168.791 314.839C168.799 314.794 168.788 314.748 168.759 314.71C168.73 314.671 168.685 314.644 168.633 314.631Z" fill="#263238"/>
<path d="M125.741 261.652L125.75 261.974L126.505 312.111L162.884 311.497L155.413 158.651H124.69L125.741 261.652Z" fill="#263238"/>
<path d="M161.366 306.392C155.684 306.349 157.312 306.292 151.631 306.306C148.858 306.306 130.583 306.363 127.997 306.756C127.986 306.759 127.977 306.766 127.97 306.774C127.963 306.782 127.96 306.792 127.96 306.802C127.96 306.812 127.963 306.822 127.97 306.83C127.977 306.838 127.986 306.845 127.997 306.849C130.6 307.184 148.858 306.849 151.639 306.813C157.321 306.713 155.684 306.684 161.366 306.527C161.383 306.523 161.398 306.514 161.408 306.501C161.419 306.489 161.424 306.475 161.424 306.459C161.424 306.444 161.419 306.43 161.408 306.418C161.398 306.405 161.383 306.396 161.366 306.392Z" fill="#37474F"/>
<path d="M132.678 289.391C132.599 284.807 132.511 280.226 132.415 275.647C132.206 266.489 132.003 257.328 131.805 248.165C131.409 229.939 131.061 211.711 130.762 193.48C130.575 183.198 130.584 172.909 130.27 162.635H130.219C130.015 171.796 130.143 180.963 130.16 190.124C130.176 199.285 130.219 208.452 130.329 217.613C130.541 235.848 130.838 254.077 131.355 272.305C131.499 277.446 131.644 282.587 131.856 287.721C132.068 292.854 132.203 298.009 132.627 303.143C132.627 303.16 132.635 303.176 132.65 303.188C132.664 303.2 132.683 303.207 132.704 303.207C132.724 303.207 132.743 303.2 132.757 303.188C132.772 303.176 132.78 303.16 132.78 303.143C132.882 298.559 132.746 293.968 132.678 289.391Z" fill="#37474F"/>
<path d="M124.681 158.958L125.487 237.005L150.121 158.651H124.69L124.681 158.958Z" fill="#37474F"/>
<path d="M70.7572 267.921L53.1951 291.955C50.3458 296.874 47.9545 301.237 46.9623 303.586C46.9586 303.6 46.9586 303.614 46.9623 303.628C46.6609 304.159 46.5071 304.74 46.5128 305.328C46.5128 305.328 46.5128 305.328 46.5128 305.371C47.6746 307.077 93.738 327.405 95.629 327.655C97.52 327.904 98.5292 323.371 97.4861 321.407C96.4431 319.444 82.9345 304.985 82.9345 304.985L100.191 280.859L70.7572 267.921Z" fill="#EB9481"/>
<path d="M46.5044 305.328C46.5005 305.342 46.5005 305.357 46.5044 305.371C47.6662 307.077 93.7296 327.405 95.6206 327.662C97.5116 327.919 98.5208 323.378 97.4862 321.407C96.4516 319.436 82.9345 304.985 82.9345 304.985L86.0128 300.701C78.4825 297.324 64.8128 291.419 56.3328 287.713L53.2206 291.997C50.3713 296.924 47.9715 301.279 46.9878 303.628C46.9841 303.643 46.9841 303.657 46.9878 303.671C46.6759 304.184 46.5104 304.752 46.5044 305.328Z" fill="white"/>
<path d="M95.629 327.655C93.738 327.405 47.6831 307.077 46.5128 305.371C46.0549 304.721 49.184 298.902 53.1951 291.955L53.3223 291.74L83.2143 304.592L82.9344 305.014C82.9344 305.014 96.4346 319.429 97.4861 321.436C98.5376 323.442 97.52 327.919 95.629 327.655Z" fill="#A6A6A6"/>
<path d="M96.0445 325.927C88.4125 322.357 57.0365 308.484 49.167 305.428C49.0992 305.428 49.0822 305.428 49.167 305.463C56.6718 309.162 88.1157 322.807 96.0021 326.034C96.1462 326.098 96.2056 325.998 96.0445 325.927Z" fill="#263238"/>
<path d="M85.3852 306.17C82.6292 304.342 78.6521 303.086 75.2092 303.886C75.0736 303.921 75.1244 304.078 75.2092 304.1C78.6232 304.592 81.964 305.394 85.1732 306.492C85.2228 306.508 85.2776 306.508 85.3274 306.493C85.3773 306.477 85.419 306.447 85.4447 306.408C85.4705 306.369 85.4787 306.324 85.4678 306.28C85.4568 306.236 85.4275 306.197 85.3852 306.17Z" fill="#263238"/>
<path d="M86.8945 308.262C84.1385 306.435 80.1614 305.178 76.7185 305.985C76.5828 305.985 76.6337 306.17 76.7185 306.192C80.1325 306.684 83.4732 307.486 86.6825 308.584C86.7321 308.6 86.7868 308.6 86.8367 308.585C86.8866 308.569 86.9282 308.539 86.954 308.5C86.9798 308.461 86.988 308.416 86.977 308.372C86.9661 308.328 86.9368 308.289 86.8945 308.262Z" fill="#263238"/>
<path d="M88.404 310.354C85.648 308.527 81.6709 307.27 78.228 308.077C78.0924 308.077 78.1432 308.262 78.228 308.284C81.642 308.776 84.9828 309.578 88.192 310.676C88.2416 310.692 88.2964 310.692 88.3462 310.677C88.3961 310.661 88.4378 310.631 88.4635 310.592C88.4893 310.553 88.4975 310.508 88.4866 310.464C88.4756 310.42 88.4463 310.381 88.404 310.354Z" fill="#263238"/>
<path d="M151.266 158.622C151.131 159.158 148.977 167.547 146.755 174.759C145.135 180.021 143.465 184.655 142.515 185.133C141.43 185.669 136.155 187.639 134.383 188.253C134.383 188.253 122.511 238.133 116.252 253.598C110.478 267.878 86.5725 306.013 86.5725 306.013L51.8384 291.312C51.8384 291.312 78.9744 252.599 81.7897 245.652C86.2078 234.885 102.761 182.306 102.761 182.306C102.761 182.306 102.634 165.848 109.223 158.658L151.266 158.622Z" fill="#263238"/>
<path d="M86.0382 300.344C81.0774 298.009 82.5359 298.623 77.5582 296.339C75.1159 295.218 59.0633 287.878 56.5702 287.171C56.5108 287.171 56.4684 287.228 56.5108 287.256C58.6054 288.606 74.8022 295.71 77.2699 296.788C82.3579 298.988 80.8993 298.309 85.9619 300.465C85.9799 300.469 85.9987 300.467 86.0154 300.46C86.0321 300.454 86.0458 300.443 86.0544 300.429C86.0631 300.415 86.0661 300.4 86.0632 300.384C86.0603 300.369 86.0515 300.355 86.0382 300.344Z" fill="#37474F"/>
<path d="M111.665 177.693C112.614 177.486 113.632 177.422 114.599 177.293C115.387 177.186 116.168 177.072 116.939 176.929C118.426 176.707 119.834 176.206 121.06 175.465C122.295 174.512 123.217 173.307 123.74 171.967C124.122 171.21 124.52 170.453 124.919 169.696L125.512 168.604C125.787 168.176 126.034 167.735 126.25 167.283C126.256 167.27 126.268 167.259 126.283 167.253C126.29 167.25 126.298 167.248 126.306 167.248C126.315 167.248 126.323 167.249 126.331 167.251C126.339 167.253 126.346 167.257 126.352 167.262C126.358 167.266 126.363 167.272 126.367 167.278C126.37 167.284 126.372 167.291 126.373 167.298C126.373 167.305 126.372 167.312 126.369 167.319C126.237 167.627 126.127 167.942 126.038 168.261C125.903 168.633 125.784 168.975 125.648 169.368C125.402 170.018 125.173 170.675 124.91 171.324C124.515 172.526 123.945 173.682 123.214 174.766C121.781 176.686 119.22 177.458 116.659 177.736C115.93 177.815 115.192 177.857 114.446 177.893C113.515 177.961 112.579 177.961 111.648 177.893C111.624 177.884 111.605 177.869 111.591 177.85C111.578 177.832 111.572 177.81 111.574 177.788C111.576 177.766 111.586 177.746 111.602 177.729C111.618 177.712 111.64 177.699 111.665 177.693Z" fill="#37474F"/>
<path d="M145.313 183.984C141.547 185.145 137.907 186.578 134.433 188.268C134.409 188.282 134.39 188.303 134.382 188.327C134.374 188.351 134.376 188.377 134.388 188.4C134.4 188.423 134.422 188.442 134.449 188.453C134.475 188.464 134.506 188.466 134.535 188.46C138.198 187.132 141.938 185.861 145.508 184.369C145.538 184.358 145.566 184.343 145.588 184.323C145.611 184.303 145.629 184.28 145.642 184.255C145.654 184.229 145.66 184.202 145.66 184.174C145.659 184.147 145.653 184.12 145.64 184.094C145.627 184.069 145.608 184.046 145.585 184.027C145.562 184.007 145.534 183.992 145.504 183.982C145.473 183.972 145.441 183.967 145.408 183.967C145.376 183.967 145.343 183.973 145.313 183.984Z" fill="#37474F"/>
<path d="M146.416 162.849C146.416 162.742 146.178 162.721 146.187 162.849C146.187 166.512 145.932 169.732 145.568 173.159C145.398 174.744 143.872 183.527 140.607 182.891C140.056 182.784 139.759 182.327 139.691 181.634C139.704 180.723 139.852 179.816 140.132 178.936C140.488 177.101 140.785 175.258 140.98 173.402C141.359 169.944 141.313 166.463 140.844 163.013C140.838 162.994 140.824 162.977 140.805 162.965C140.786 162.953 140.762 162.946 140.738 162.946C140.714 162.946 140.691 162.953 140.672 162.965C140.653 162.977 140.639 162.994 140.632 163.013C140.73 167.809 140.399 172.604 139.64 177.358C139.233 179.635 137.859 183.07 140.7 183.427C143.541 183.784 145.457 178.029 145.788 176.451C146.693 171.959 146.904 167.387 146.416 162.849Z" fill="#37474F"/>
<path d="M140.692 183.112C140.397 183.704 140.153 184.312 139.962 184.933C139.75 185.41 139.643 185.916 139.649 186.425C139.653 186.446 139.665 186.465 139.682 186.481C139.699 186.496 139.722 186.506 139.746 186.511C139.771 186.515 139.796 186.514 139.82 186.506C139.843 186.499 139.863 186.485 139.878 186.468C140.216 186.027 140.473 185.546 140.641 185.04C140.887 184.476 141.15 183.919 141.379 183.348C141.397 183.31 141.406 183.269 141.406 183.228C141.406 183.187 141.396 183.147 141.377 183.109C141.358 183.071 141.33 183.037 141.296 183.008C141.261 182.979 141.22 182.957 141.175 182.941C141.13 182.926 141.082 182.918 141.033 182.918C140.984 182.918 140.936 182.927 140.891 182.942C140.846 182.958 140.806 182.982 140.771 183.011C140.737 183.04 140.71 183.074 140.692 183.112Z" fill="#37474F"/>
<path d="M61.2088 286.428C66.1441 278.603 71.2321 270.842 76.3201 263.088C78.8641 259.268 81.4675 255.491 83.8758 251.621C86.1392 247.783 87.9759 243.777 89.3624 239.654C92.4265 231.296 95.321 222.894 98.0459 214.45C100.771 206.006 103.337 197.526 105.746 189.01C106.348 186.868 107.009 184.726 107.493 182.584C107.929 180.412 107.929 178.194 107.493 176.022C107.117 174.001 107.097 171.944 107.433 169.918C107.817 167.894 108.384 165.899 109.129 163.949C109.511 162.92 109.926 161.899 110.35 160.886C110.393 160.771 110.605 160.821 110.562 160.936C109.061 165.062 107.535 169.225 107.857 173.595C108.01 175.694 108.705 177.75 108.629 179.864C108.466 181.961 108.043 184.038 107.365 186.061C105.008 194.629 102.464 203.157 99.7334 211.644C97.0028 220.131 94.1592 228.599 91.2025 237.048C89.727 241.139 88.3532 245.295 86.2587 249.186C84.1641 253.077 81.5184 256.79 79.0252 260.531C73.8694 268.25 68.6712 275.954 63.3542 283.594L61.319 286.5C61.2766 286.55 61.1664 286.492 61.2088 286.428Z" fill="#37474F"/>
<path d="M131.796 125.8C138.063 128.163 165.665 132.454 173.984 126.899C182.464 121.237 187.976 97.6252 188.612 94.8335C189.248 92.0417 167.658 87.6935 166.92 90.2282C165.038 96.7613 161.79 113.883 158.601 114.797C151.902 116.71 145.407 117.053 134.603 118.817C127.073 120.045 124.876 123.186 131.796 125.8Z" fill="#EB9481"/>
<path d="M188.256 95.419C189.553 93.4483 194.709 83.8736 195.405 80.9747C196.1 78.0759 197.372 69.6007 194.786 68.9296C192.199 68.2584 191.589 70.686 191.589 70.686C191.589 70.686 191.453 67.0375 188.782 66.5662C186.111 66.095 185.305 69.9292 185.305 69.9292C185.305 69.9292 184.839 66.1878 182.133 65.8736C179.428 65.5595 179.386 69.5365 179.386 69.5365C179.386 69.5365 179.157 66.1021 176.842 66.6376C174.001 67.2731 175.273 73.5634 174.222 76.7193C173.984 77.4333 168.158 90.9493 168.158 90.9493L188.256 95.419Z" fill="#EB9481"/>
<path d="M179.403 69.258C180.327 73.8847 179.785 76.041 177.665 80.3107C177.66 80.3192 177.657 80.3283 177.656 80.3378C177.655 80.3472 177.656 80.3566 177.66 80.3656C177.663 80.3745 177.669 80.3828 177.676 80.3899C177.684 80.3971 177.693 80.4029 177.703 80.4071C177.713 80.4113 177.724 80.4138 177.735 80.4145C177.746 80.4152 177.757 80.414 177.768 80.411C177.778 80.408 177.788 80.4033 177.797 80.3971C177.805 80.3909 177.812 80.3834 177.817 80.375C180.361 76.3623 181.489 73.7348 179.666 69.208C179.573 68.951 179.361 69.001 179.403 69.258Z" fill="#263238"/>
<path d="M185.22 69.5864C185.687 74.463 185.118 76.8121 183.295 81.4174C183.295 81.4817 183.397 81.5245 183.422 81.4602C185.67 77.0691 186.747 74.4273 185.517 69.6007C185.466 69.3865 185.203 69.3651 185.22 69.5864Z" fill="#263238"/>
<path d="M191.487 70.943C191.529 75.6911 191.037 78.2901 188.587 82.567C188.573 82.5868 188.57 82.6104 188.577 82.6325C188.584 82.6546 188.601 82.6734 188.625 82.6848C188.649 82.6961 188.677 82.6991 188.703 82.6931C188.729 82.6871 188.751 82.6725 188.765 82.6526C191.775 78.4972 192.411 75.2627 191.657 70.9573C191.648 70.686 191.478 70.6432 191.487 70.943Z" fill="#263238"/>
<path d="M166.7 93.6696C166.7 93.6696 164.283 88.1504 163.859 85.53C163.435 82.9097 166.123 72.678 168.786 73.0065C172.229 73.4777 172.068 79.661 171.517 82.674C171.517 82.674 179.479 83.7522 180.497 88.2147C181.514 92.6772 166.7 93.6696 166.7 93.6696Z" fill="#EB9481"/>
<path d="M169.685 73.3992C172.458 75.734 171.432 79.6538 171.152 82.6169C171.145 82.661 171.15 82.7058 171.169 82.7475C171.187 82.7893 171.217 82.8265 171.256 82.8562C171.296 82.8858 171.343 82.9068 171.394 82.9174C171.446 82.928 171.499 82.9278 171.55 82.9168C174.849 83.5523 179.284 85.2659 180.624 88.0576C180.631 88.0747 180.645 88.0888 180.664 88.0968C180.683 88.1048 180.706 88.1062 180.726 88.1005C180.746 88.0948 180.763 88.0826 180.772 88.0665C180.782 88.0504 180.783 88.0318 180.777 88.0148C179.827 84.8589 175.638 82.8811 171.966 82.3742C172.305 79.3397 173.128 75.3698 169.71 73.3778C169.685 73.3635 169.668 73.3849 169.685 73.3992Z" fill="#263238"/>
<path d="M165.581 94.5764C165.581 94.5764 160.798 113.069 158.907 113.904C155.752 115.29 137.452 117.917 130.923 119.145C124.393 120.373 119.322 126.328 136.011 128.506C152.699 130.683 167.862 134.075 175.867 131.026C180.845 129.127 196.431 109.97 196.431 109.97L165.581 94.5764Z" fill="#6F42C1"/>
<path d="M165.004 101.117C177.215 106.707 189.019 113.419 191.182 114.526C191.292 114.583 191.182 114.704 191.046 114.647C189.019 113.605 174.315 106.614 164.843 101.245C164.733 101.188 164.885 101.06 165.004 101.117Z" fill="#263238"/>
<path opacity="0.1" d="M172.339 131.904C163.859 133.211 150.461 130.398 135.985 128.506C125.809 127.171 123.757 124.429 125.182 122.215L172.339 131.904Z" fill="black"/>
<path d="M102.608 170.51C102.752 170.603 156.736 167.433 157.109 166.94C157.313 166.669 156.6 160.479 153.827 153.074C149.223 140.737 139.411 124.1 132.856 118.974C130.236 116.925 122.952 117.81 120.085 120.487C111.572 128.406 102.091 170.16 102.608 170.51Z" fill="#EBEBEB"/>
<path d="M118.932 120.766C118.932 120.766 123.384 127.556 124.783 129.334C128.039 133.475 135.807 139.33 135.807 139.33C136.418 134.889 136.559 130.412 136.231 125.95C136.053 124.279 133.645 119.252 133.645 119.252C133.645 119.252 148.358 132.318 156.159 158.608C163.961 184.897 174.925 261.038 174.925 261.038C174.925 261.038 155.778 274.047 135.782 274.005C103.456 273.926 69.8667 255.683 69.8667 255.683C69.8667 255.683 80.9925 240.211 81.7896 238.19C82.5867 236.17 99.1227 182.234 99.3093 181.784C99.4958 181.335 110.893 128.727 118.932 120.766Z" fill="#6F42C1"/>
<path opacity="0.1" d="M141.404 249.6C140.598 252.977 135.697 265.922 132.627 273.94C126.428 273.668 120.274 272.893 114.251 271.627C120.094 265.522 130.575 251.863 132.161 248.415C134.018 244.374 135.697 225.074 138.377 223.211C141.056 221.347 142.591 244.616 141.404 249.6Z" fill="black"/>
<path opacity="0.1" d="M134.679 209.916C134.679 209.78 134.4 209.737 134.383 209.916C134.222 211.051 134.179 212.201 134.043 213.336C133.908 214.471 133.662 215.614 133.475 216.756C133.111 219.069 132.695 221.383 132.305 223.689C131.525 228.273 130.482 232.843 129.337 237.369C128.693 239.925 127.87 242.474 126.963 244.973C126.963 245.045 127.064 245.066 127.09 244.973C129.084 240.588 130.802 236.117 132.237 231.579C132.901 229.331 133.422 227.055 133.798 224.76C134.22 222.47 134.503 220.163 134.646 217.849C134.722 216.556 134.688 215.264 134.688 213.972C134.688 212.679 134.781 211.251 134.679 209.916Z" fill="black"/>
<path opacity="0.1" d="M168.04 262.295C168.04 263.245 167.929 264.187 167.845 265.151L166.768 265.701C166.768 265.629 166.768 265.551 166.768 265.479C166.691 264.051 166.649 262.688 166.598 261.288C166.412 256.39 166.208 251.499 165.682 246.616C165.547 245.395 165.504 244.174 165.368 242.953C165.188 241.714 165.1 240.467 165.106 239.219C165.077 237.998 164.938 236.78 164.69 235.577C164.512 234.335 164.292 233.1 164.105 231.864C164.11 231.853 164.118 231.844 164.13 231.837C164.141 231.831 164.155 231.827 164.169 231.827C164.182 231.827 164.196 231.831 164.207 231.837C164.219 231.844 164.227 231.853 164.232 231.864C164.605 233.228 164.902 234.599 165.216 235.97C165.368 236.684 165.504 237.341 165.665 238.026C165.826 238.712 166.064 239.369 166.216 240.047C167.263 244.949 167.858 249.912 167.997 254.891C168.091 257.333 168.133 259.81 168.04 262.295Z" fill="black"/>
<path opacity="0.1" d="M162.01 237.919C161.943 236.12 161.875 234.306 161.748 232.507C161.62 230.708 161.442 228.937 161.213 227.188C160.984 225.438 160.603 223.618 160.416 221.783C160.204 219.748 159.975 217.706 159.797 215.664C159.797 215.564 159.602 215.571 159.611 215.664C159.721 217.47 159.806 219.269 159.907 221.076C160.009 222.882 159.907 224.689 160.026 226.495C160.187 230.065 160.603 233.635 161.129 237.205C161.434 239.247 161.883 241.268 162.095 243.317C162.095 243.388 162.239 243.381 162.231 243.317C162.053 241.539 162.078 239.725 162.01 237.919Z" fill="black"/>
<path opacity="0.1" d="M126.878 250.207C125.47 252.349 123.995 254.491 122.502 256.633C121.171 258.525 119.865 260.431 118.321 262.209C116.778 263.987 115.226 265.615 113.59 267.264C112.436 268.421 111.275 269.578 110.062 270.685L108.993 270.427L110.062 269.335C113.047 266.308 115.786 263.123 118.618 259.996C120.068 258.397 121.561 256.833 122.918 255.169C124.274 253.506 125.546 251.849 126.784 250.171C126.79 250.161 126.8 250.153 126.813 250.149C126.826 250.145 126.84 250.145 126.852 250.15C126.865 250.155 126.874 250.163 126.879 250.174C126.884 250.185 126.883 250.197 126.878 250.207Z" fill="black"/>
<path opacity="0.1" d="M120.594 218.827C118.627 223.953 116.634 229.058 114.268 234.063C113.106 236.52 111.724 238.89 110.418 241.296C109.112 243.702 107.874 246.116 106.365 248.436C104.669 251.06 102.786 253.595 100.726 256.026C100.726 256.083 100.785 256.14 100.836 256.098C104.864 252.004 108.281 247.51 111.012 242.717C112.338 240.274 113.501 237.772 114.497 235.22C115.574 232.693 116.558 230.144 117.524 227.587C118.618 224.682 119.653 221.768 120.696 218.855C120.695 218.846 120.69 218.837 120.683 218.83C120.676 218.822 120.666 218.817 120.656 218.814C120.645 218.811 120.634 218.811 120.623 218.813C120.612 218.815 120.602 218.82 120.594 218.827Z" fill="black"/>
<path opacity="0.1" d="M156.982 164.67C156.312 165.241 155.557 165.741 154.862 166.283L153.87 167.076C153.496 167.362 153.098 167.576 152.708 167.84C151.292 168.804 149.833 169.718 148.4 170.696C145.594 172.596 142.475 174.143 139.14 175.287C131.754 177.722 123.655 177.158 116.117 175.665C111.69 174.787 107.374 173.523 103.015 172.41C102.956 172.41 102.913 172.488 103.015 172.51C106.814 173.938 110.647 175.158 114.607 176.229C118.469 177.345 122.484 178.041 126.556 178.3C130.574 178.525 134.607 178.089 138.428 177.015C141.91 175.972 145.184 174.489 148.137 172.617C149.851 171.558 151.438 170.363 152.877 169.047C153.624 168.368 154.336 167.661 155.074 166.983C155.812 166.305 156.464 165.555 157.194 164.841C157.236 164.713 157.084 164.584 156.982 164.67Z" fill="black"/>
<path d="M110.494 128.52C94.9845 122.03 77.4225 112.626 76.4981 104.958C75.6501 98.0607 81.0858 86.3297 86.8861 73.542C88.0394 71.0073 110.986 79.5896 109.443 82.1885C106.39 87.3079 97.8593 98.4249 97.7236 101.745C97.6642 103.173 111.588 115.111 119.407 123.301C128.896 133.311 116.676 131.126 110.494 128.52Z" fill="#EB9481"/>
<path d="M91.6688 62.4821C88.8873 66.1735 85.3087 77.3405 85.8175 79.7823C86.3263 82.2242 105.237 85.8799 107.577 84.2663C109.918 82.6526 118.135 69.6078 117.558 65.1739C116.982 60.74 94.552 58.6551 91.6688 62.4821Z" fill="#EB9481"/>
<path d="M130.371 59.4191C130.371 59.4191 137.155 64.7741 132.313 71.8784C132.313 71.8784 107.662 72.8208 106.17 73.0565C104.677 73.2921 77.3375 79.6752 77.3375 79.6752C77.3375 79.6752 72.7499 74.5416 76.0401 66.3234C76.0401 66.3234 104.372 66.9018 105.194 66.7376C106.017 66.5733 130.371 59.4191 130.371 59.4191Z" fill="#EBEBEB"/>
<path d="M77.3291 79.6753C77.3291 79.6753 82.1711 71.9284 76.0316 66.3235C76.0316 66.3235 72.0799 72.3996 77.3291 79.6753Z" fill="#DBDBDB"/>
<path d="M106.17 73.0565C106.331 73.2135 106.407 73.0565 106.441 72.9137C106.476 72.7698 106.501 72.6244 106.517 72.4781C106.517 72.1782 106.517 71.8784 106.517 71.5785C106.514 70.9772 106.471 70.3766 106.39 69.7792C106.314 69.1866 106.212 68.5868 106.076 68.0013C106.013 67.7101 105.922 67.4236 105.805 67.1445C105.686 66.9018 105.525 66.5448 105.152 66.7376C105.203 66.6619 105.284 66.6038 105.381 66.5733C105.495 66.5574 105.612 66.5751 105.712 66.6233C105.892 66.7088 106.046 66.8286 106.161 66.9732C106.394 67.2371 106.579 67.5281 106.712 67.8371C106.976 68.4402 107.15 69.0686 107.23 69.7078C107.316 70.3448 107.296 70.9889 107.17 71.6213C107.111 71.9404 107.015 72.2537 106.882 72.5567C106.815 72.7123 106.727 72.8608 106.619 72.9993C106.562 73.0805 106.48 73.1471 106.382 73.1921C106.356 73.2078 106.325 73.2163 106.293 73.2163C106.261 73.2163 106.23 73.2078 106.204 73.1921C106.185 73.1484 106.174 73.1028 106.17 73.0565Z" fill="#6F42C1"/>
<path d="M105.788 73.1279C105.966 73.2778 106.026 73.1279 106.051 72.9708C106.064 72.8211 106.064 72.6707 106.051 72.521C106.051 72.2211 106.051 71.9141 106.051 71.6142C105.996 71.0106 105.903 70.41 105.771 69.8149C105.644 69.2223 105.491 68.6225 105.313 68.0371C105.226 67.7455 105.116 67.4593 104.982 67.1803C104.921 67.0476 104.838 66.9227 104.737 66.809C104.712 66.7823 104.681 66.7607 104.644 66.7458C104.608 66.731 104.569 66.7233 104.529 66.7233C104.489 66.7233 104.449 66.731 104.413 66.7458C104.377 66.7607 104.346 66.7823 104.321 66.809C104.339 66.7668 104.368 66.7286 104.406 66.6976C104.444 66.6666 104.491 66.6436 104.542 66.6305C104.655 66.6173 104.771 66.6348 104.872 66.6805C105.05 66.7738 105.208 66.8922 105.339 67.0303C105.575 67.2908 105.774 67.5736 105.932 67.8728C106.238 68.4634 106.463 69.0814 106.602 69.715C106.745 70.3526 106.782 71.0037 106.712 71.6499C106.68 71.9739 106.609 72.2944 106.5 72.6067C106.447 72.7676 106.373 72.9231 106.28 73.0708C106.226 73.1528 106.15 73.2235 106.059 73.2778C105.907 73.3135 105.805 73.1921 105.788 73.1279Z" fill="#6F42C1"/>
<path d="M105.491 73.1921C105.52 73.222 105.558 73.2443 105.601 73.2564C105.609 73.1875 105.609 73.1182 105.601 73.0493C105.601 72.8994 105.525 72.7566 105.483 72.6066L105.228 71.7213C105.059 71.1358 104.915 70.536 104.762 69.9434C104.609 69.3508 104.508 68.751 104.389 68.1584C104.329 67.8585 104.279 67.5587 104.202 67.2731C104.168 67.1318 104.12 66.9933 104.058 66.8589C103.999 66.7304 103.88 66.659 103.71 66.7875C103.726 66.7441 103.756 66.7053 103.797 66.6751C103.837 66.6449 103.886 66.6245 103.939 66.6162C104.057 66.6243 104.166 66.6703 104.245 66.7447C104.378 66.8648 104.492 66.9993 104.584 67.1445C104.757 67.4249 104.905 67.7161 105.025 68.0156C105.263 68.6014 105.452 69.2002 105.593 69.8078C105.743 70.4128 105.842 71.026 105.89 71.6427C105.911 71.9543 105.911 72.2666 105.89 72.5781C105.89 72.7352 105.89 72.8922 105.83 73.0493C105.81 73.1328 105.778 73.2142 105.737 73.2921C105.725 73.3198 105.7 73.3426 105.669 73.3563C105.654 73.3674 105.634 73.3735 105.614 73.3735C105.594 73.3735 105.574 73.3674 105.559 73.3563C105.522 73.3066 105.499 73.2504 105.491 73.1921Z" fill="#6F42C1"/>
<path d="M116.821 72.1497C114.361 73.1779 114.327 70.1434 114.327 70.1434C114.327 70.1434 113.123 74.5202 110.087 74.7558C107.052 74.9914 107.281 71.3143 107.289 71.0501C107.221 71.2786 105.992 75.2842 102.922 75.2556C99.8521 75.227 100.59 71.5642 100.649 71.3215C100.505 71.5285 98.5547 74.1775 96.2227 73.6991C92.2201 72.8994 96.9943 66.0307 96.0191 63.3461C96.0191 63.3461 91.6095 62.7535 91.4399 62.7535C91.4399 62.7535 94.6454 57.6055 99.0126 56.6987C99.6449 56.5586 100.315 56.6047 100.912 56.8293C101.509 57.054 101.997 57.4438 102.294 57.934C102.294 57.934 103.456 55.692 105.856 55.6206C107.103 55.6206 108.247 57.2557 108.247 57.2557C108.535 56.7555 108.981 56.3316 109.536 56.0306C110.091 55.7296 110.733 55.5631 111.393 55.5492C113.089 55.6063 113.997 57.2557 113.997 57.2557C113.997 57.2557 115.896 55.9205 117.626 56.456C121.137 57.5341 122.112 69.972 116.821 72.1497Z" fill="#EB9481"/>
<path d="M108.273 57.1985C108.273 57.1485 108.357 57.1343 108.374 57.1985C110.059 61.8073 109.729 66.7718 107.442 71.1929C107.357 71.3429 107.102 71.4071 107.179 71.1929C108.544 68.1513 108.985 61.1684 108.273 57.1985Z" fill="#263238"/>
<path d="M100.352 71.5856C102.54 67.2445 102.896 62.7534 102.379 58.0982C102.379 58.041 102.481 58.041 102.498 58.0982C103.465 60.3187 103.397 63.3104 103.108 65.6309C102.901 67.7923 102.024 69.8701 100.564 71.657C100.48 71.7213 100.31 71.6784 100.352 71.5856Z" fill="#263238"/>
<path d="M114.327 70.1433C114.005 70.966 113.594 71.7619 113.098 72.521C112.653 73.2714 111.98 73.9094 111.147 74.3702C110.751 74.5658 110.282 74.6294 109.833 74.5487C109.382 74.4619 108.965 74.2801 108.62 74.0204C108.308 73.7335 108.072 73.3945 107.925 73.0254C107.779 72.6563 107.727 72.2655 107.772 71.8784L107.866 69.9791L107.018 71.7356C106.644 72.5167 106.12 73.2404 105.466 73.8776C105.182 74.1877 104.824 74.444 104.415 74.6297C104.006 74.8155 103.555 74.9266 103.091 74.9557C102.66 74.9789 102.233 74.8766 101.881 74.666C101.529 74.4554 101.274 74.1493 101.158 73.799C100.912 73.0103 100.912 72.1815 101.158 71.3928L101.735 69.1937L100.335 71.1001C99.9498 71.6244 99.4852 72.1044 98.9531 72.5281C98.4628 72.9526 97.8344 73.2457 97.1469 73.3706C96.8306 73.4231 96.503 73.3986 96.2026 73.3C95.9023 73.2013 95.6415 73.0327 95.4509 72.8137C95.1201 72.28 94.9733 71.679 95.0269 71.0787C95.132 69.779 95.3531 68.4877 95.6883 67.2159C95.841 66.5733 95.9851 65.9236 96.0954 65.2667C96.2608 64.6148 96.2608 63.9408 96.0954 63.2889C96.1805 63.94 96.1201 64.5987 95.9173 65.231C95.7477 65.8736 95.5442 66.5091 95.3407 67.1445C94.8887 68.4217 94.5792 69.7316 94.4163 71.0573C94.3194 71.7751 94.4696 72.5012 94.8488 73.1493C95.1026 73.4826 95.4666 73.746 95.8961 73.9072C96.3255 74.0683 96.8016 74.1201 97.2656 74.0561C98.1219 73.9205 98.9104 73.5724 99.5298 73.0565C100.134 72.5819 100.664 72.0444 101.107 71.4571L100.259 71.1715C99.959 72.1067 99.959 73.0923 100.259 74.0275C100.437 74.5395 100.817 74.9852 101.336 75.2913C101.863 75.5719 102.476 75.716 103.1 75.7054C103.688 75.6691 104.261 75.5281 104.78 75.2918C105.299 75.0555 105.752 74.7292 106.11 74.3345C106.831 73.6257 107.405 72.8194 107.806 71.9498L107.035 71.807C107.008 72.2893 107.108 72.7707 107.326 73.2173C107.544 73.6638 107.876 74.0647 108.298 74.3916C108.743 74.6924 109.271 74.8938 109.833 74.9771C110.422 75.0592 111.026 74.955 111.529 74.6844C112.406 74.1399 113.083 73.3972 113.479 72.5424C113.863 71.7704 114.147 70.9662 114.327 70.1433Z" fill="#263238"/>
<path d="M109.443 82.2528C109.443 82.2528 127.616 71.7641 119.263 67.83C116.787 66.6447 104.923 64.26 104.313 66.2877C103.532 68.8724 108.264 70.6289 111.444 71.3357C111.444 71.3357 104.66 74.1917 105.602 78.7328C105.798 79.5593 106.26 80.3246 106.937 80.9453C107.615 81.566 108.481 82.0182 109.443 82.2528Z" fill="#EB9481"/>
<path d="M119.933 68.1584C119.027 67.5962 118.027 67.151 116.965 66.8375C115.914 66.4989 114.837 66.2198 113.742 66.0021C111.553 65.5371 109.32 65.2337 107.069 65.0954C106.472 65.0613 105.873 65.0974 105.288 65.2025C104.951 65.2691 104.633 65.393 104.355 65.5666C104.209 65.6677 104.081 65.7855 103.973 65.9165C103.875 66.0519 103.801 66.1986 103.753 66.352C103.597 66.9058 103.682 67.488 103.99 67.9942C104.292 68.4538 104.685 68.8667 105.152 69.2151C106.035 69.8564 107.042 70.3659 108.129 70.7217C109.181 71.0866 110.264 71.3872 111.368 71.6213L111.3 71.0073C110.54 71.3526 109.822 71.7591 109.155 72.2211C108.486 72.671 107.877 73.181 107.34 73.7419C106.795 74.3001 106.358 74.9264 106.042 75.5983C105.716 76.259 105.549 76.9677 105.551 77.6832C105.657 76.988 105.906 76.3138 106.288 75.6911C106.67 75.0797 107.149 74.5151 107.713 74.0132C108.268 73.5064 108.882 73.0472 109.545 72.6423C110.202 72.2397 110.903 71.8907 111.639 71.5999L112.547 71.2429L111.571 70.9859C110.519 70.7285 109.488 70.4137 108.485 70.0434C107.499 69.6902 106.586 69.2083 105.78 68.6154C105.4 68.3759 105.099 68.0586 104.906 67.6937C104.713 67.3287 104.635 66.9283 104.677 66.5305C104.813 65.9022 106.034 65.8165 107.077 65.8165C108.12 65.8165 109.256 65.945 110.359 66.0521C111.461 66.1592 112.555 66.2877 113.641 66.4591C115.83 66.7483 117.952 67.3216 119.933 68.1584Z" fill="#263238"/>
<path d="M107.925 84.8446C107.925 84.8446 98.2068 100.467 98.9955 102.145C100.301 104.929 116.651 119.545 120.619 124.057C124.588 128.57 127.064 134.232 111.936 131.583C101.115 129.677 76.3623 117.446 72.4446 109.542C69.7395 104.08 70.4857 81.8815 70.4857 81.8815L107.925 84.8446Z" fill="#6F42C1"/>
<path d="M72.9704 87.5578C86.8607 87.9648 100.954 89.5284 103.498 89.6998C103.617 89.6998 103.549 89.8712 103.431 89.864C101.065 89.6927 84.2064 88.9787 72.9026 87.722C72.7669 87.722 72.8347 87.5578 72.9704 87.5578Z" fill="#263238"/>
<path d="M126.954 116.218C121.018 116.218 112.284 124.479 112.657 126.678C113.208 129.819 118.813 152.86 119.585 159.015C120.357 165.17 105.169 194.715 105.169 194.715L115.15 192.266L118.957 199.749C118.957 199.749 132.313 173.909 133.373 162.792C134.433 151.675 119.805 123.458 120.467 121.766C121.128 120.073 125.156 118.024 127.175 117.96C129.193 117.896 133.111 120.637 135.553 123.536C137.995 126.435 149.638 147.048 151.665 154.574C153.692 162.099 149.248 192.723 149.248 192.723L157.16 187.761L165.199 193.751C165.199 193.751 167.115 164.32 164.266 152.003C162.46 144.149 151.716 130.084 141.684 122.137C135.943 117.596 130.507 116.211 126.954 116.218Z" fill="#455A64"/>
<path d="M131.728 126.249C129.557 126.692 124.207 124 121.756 121.387C121.595 121.209 121.535 119.074 121.315 116.489C121.179 114.918 120.984 113.176 120.662 111.598L132.924 112.312C132.649 114.385 132.675 116.478 133 118.545C133.05 118.762 133.12 118.974 133.212 119.181C133.212 119.181 133.212 119.245 133.212 119.288C133.738 120.502 135.12 125.557 131.728 126.249Z" fill="#EB9481"/>
<path d="M133.212 119.195C133.215 119.231 133.215 119.267 133.212 119.302C132.818 119.403 132.416 119.479 132.008 119.531C125.292 120.352 122.273 113.719 121.51 111.677L132.882 112.355C132.607 114.428 132.632 116.521 132.958 118.588C133.024 118.796 133.109 118.999 133.212 119.195Z" fill="#263238"/>
<path d="M129.032 91.5491C129.032 91.5491 133.501 92.1631 135.222 95.5046C136.944 98.8461 137.02 102.687 136.706 102.937C136.392 103.187 129.032 91.5491 129.032 91.5491Z" fill="#263238"/>
<path d="M115.226 99.7315C115.048 103.451 120.314 112.941 123.927 114.511C129.15 116.803 136.155 115.582 138.08 110.591C139.92 105.751 132.814 93.534 128.896 92.1988C123.206 90.2782 115.489 94.248 115.226 99.7315Z" fill="#EB9481"/>
<path d="M125.114 101.759C125.411 101.566 125.648 101.345 125.962 101.124C126.285 100.934 126.526 100.661 126.649 100.346C126.662 100.24 126.635 100.134 126.571 100.042C126.506 99.951 126.409 99.8795 126.293 99.8386C126.046 99.7903 125.788 99.7986 125.547 99.8626C125.305 99.9267 125.088 100.044 124.919 100.203C124.516 100.475 124.25 100.865 124.173 101.295C124.165 101.39 124.19 101.485 124.243 101.569C124.296 101.653 124.376 101.723 124.473 101.771C124.571 101.82 124.683 101.844 124.796 101.842C124.909 101.84 125.019 101.811 125.114 101.759Z" fill="#263238"/>
<path d="M132.687 99.0032C132.326 99.0688 131.96 99.1164 131.593 99.146C131.214 99.2417 130.809 99.2291 130.439 99.1103C130.33 99.0557 130.247 98.9715 130.202 98.8717C130.158 98.7718 130.154 98.6621 130.193 98.5605C130.302 98.3687 130.469 98.2047 130.677 98.0854C130.886 97.9662 131.129 97.896 131.381 97.8822C131.887 97.7899 132.415 97.8586 132.865 98.075C132.964 98.1293 133.042 98.2067 133.09 98.2978C133.138 98.3888 133.153 98.4896 133.134 98.5879C133.116 98.6862 133.063 98.7778 132.984 98.8516C132.904 98.9253 132.801 98.978 132.687 99.0032Z" fill="#263238"/>
<path d="M129.498 109.092C129.751 109.223 130.052 109.274 130.346 109.235C130.628 109.125 130.879 108.967 131.084 108.771C131.084 108.771 131.143 108.771 131.135 108.771C131.092 108.94 130.994 109.095 130.854 109.221C130.714 109.347 130.535 109.438 130.338 109.485C130.163 109.513 129.983 109.495 129.821 109.432C129.66 109.369 129.526 109.265 129.439 109.135C129.439 109.129 129.44 109.122 129.443 109.117C129.446 109.111 129.451 109.106 129.456 109.102C129.462 109.098 129.469 109.095 129.476 109.093C129.483 109.091 129.491 109.091 129.498 109.092Z" fill="#263238"/>
<path d="M129.32 106.857C129.646 107.043 130.013 107.17 130.4 107.23C130.787 107.29 131.184 107.283 131.567 107.207C131.906 107.146 132.232 107.043 132.534 106.9L132.704 106.822L132.856 106.736C132.894 106.715 132.922 106.684 132.938 106.648C132.953 106.612 132.954 106.573 132.941 106.536C132.944 106.515 132.944 106.493 132.941 106.472V106.415C132.704 105.908 132.254 105.172 132.254 105.172C132.517 105.172 133.831 105.172 133.687 104.951C132.468 102.727 130.985 100.612 129.261 98.6391C129.255 98.6316 129.248 98.6251 129.239 98.6199C129.231 98.6148 129.221 98.6111 129.211 98.6092C129.201 98.6072 129.19 98.6069 129.18 98.6083C129.169 98.6098 129.159 98.613 129.15 98.6177C129.141 98.6223 129.134 98.6285 129.128 98.6357C129.122 98.6429 129.117 98.651 129.115 98.6596C129.112 98.6683 129.112 98.6772 129.114 98.6859C129.116 98.6946 129.119 98.703 129.125 98.7105C130.236 100.767 131.771 102.652 132.924 104.701C132.452 104.692 131.982 104.738 131.525 104.837C131.457 104.887 132.415 106.265 132.5 106.486C132.037 106.704 131.526 106.84 130.998 106.887C130.471 106.934 129.937 106.889 129.43 106.757C129.286 106.757 129.244 106.822 129.32 106.857Z" fill="#263238"/>
<path d="M132.051 106.779C131.903 107.253 131.61 107.686 131.203 108.035C130.973 108.228 130.676 108.353 130.355 108.392C129.668 108.478 129.413 108.007 129.32 107.557C129.27 107.321 129.256 107.081 129.278 106.843C130.186 107.076 131.159 107.053 132.051 106.779Z" fill="#263238"/>
<path d="M131.219 108.035C130.99 108.228 130.692 108.353 130.371 108.392C129.685 108.478 129.43 108.007 129.337 107.557C129.669 107.445 130.036 107.432 130.378 107.519C130.72 107.606 131.016 107.788 131.219 108.035Z" fill="#FF9BBC"/>
<path d="M126.03 103.337C125.991 103.148 126.012 102.954 126.089 102.773C126.138 102.678 126.209 102.591 126.298 102.519C126.386 102.447 126.491 102.39 126.606 102.352C126.728 102.319 126.856 102.31 126.983 102.325C127.109 102.339 127.23 102.378 127.336 102.438C127.515 102.549 127.663 102.693 127.768 102.859C127.828 102.958 127.879 103.061 127.921 103.166C128.022 103.381 128.056 103.614 128.023 103.844C127.969 103.682 127.892 103.526 127.794 103.38C127.712 103.246 127.616 103.119 127.505 103.002C127.285 102.752 126.996 102.58 126.742 102.673C126.488 102.766 126.335 103.002 126.344 103.316C126.365 103.636 126.422 103.954 126.513 104.265C126.269 103.991 126.104 103.674 126.03 103.337Z" fill="#263238"/>
<path d="M133.467 100.453C133.338 100.296 133.159 100.175 132.949 100.103C132.836 100.06 132.713 100.039 132.589 100.039C132.465 100.039 132.342 100.06 132.229 100.103C132.117 100.153 132.02 100.225 131.945 100.311C131.87 100.398 131.819 100.497 131.796 100.603C131.772 100.79 131.792 100.979 131.856 101.16C131.856 101.267 131.957 101.367 132.008 101.467C132.13 101.674 132.307 101.855 132.525 101.995C132.425 101.851 132.346 101.698 132.288 101.538C132.23 101.394 132.187 101.246 132.161 101.095C132.101 100.795 132.161 100.495 132.415 100.381C132.562 100.328 132.727 100.319 132.881 100.356C133.035 100.392 133.17 100.472 133.263 100.581C133.522 100.818 133.754 101.074 133.959 101.345C133.879 101.02 133.711 100.714 133.467 100.453Z" fill="#263238"/>
<path d="M119.059 108.078C120.526 107.9 120.162 104.066 119.907 102.652C119.653 101.409 118.11 97.7609 118.033 97.4967C117.957 97.2325 125.351 98.3392 128.133 96.2543C130.914 94.1695 131.686 90.8636 131.084 89.707C130.482 88.5503 124.809 87.2722 121.264 88.536C117.719 89.7998 115.125 95.369 115.125 95.369C115.384 94.5996 115.571 93.8141 115.684 93.0199C115.557 92.9057 113.742 94.5622 114.09 96.0687C114.09 96.0687 113.581 94.2052 113.395 94.2409C113.208 94.2766 112.284 96.3829 113.293 97.3539C113.293 97.3539 112.114 99.6316 112.835 101.317C113.556 103.002 117.338 108.292 119.059 108.078Z" fill="#263238"/>
<path d="M130.066 94.7621C129.353 95.5815 128.495 96.3039 127.522 96.9041C126.391 97.4591 125.116 97.7728 123.808 97.818C122.494 97.8973 121.174 97.7961 119.899 97.5181C118.779 97.2825 117.677 96.8969 116.507 96.747C116.227 96.7113 116.125 97.0683 116.346 97.1825C118.749 98.3107 121.52 98.7588 124.249 98.4606C125.517 98.3236 126.721 97.9113 127.742 97.2641C128.763 96.6169 129.567 95.7571 130.075 94.7692L130.066 94.7621Z" fill="#263238"/>
<path d="M120.289 107.286C120.289 107.286 116.541 104.722 115.091 105.936C113.641 107.15 117.194 111.313 119.441 111.463C119.726 111.499 120.017 111.486 120.297 111.424C120.576 111.363 120.838 111.255 121.066 111.106C121.294 110.957 121.484 110.771 121.625 110.558C121.765 110.346 121.853 110.112 121.883 109.87L120.289 107.286Z" fill="#EB9481"/>
<path d="M116.176 107.1C116.176 107.1 116.176 107.143 116.176 107.15C117.762 107.293 118.881 108.221 119.797 109.249C119.674 109.149 119.526 109.072 119.364 109.024C119.202 108.976 119.03 108.958 118.859 108.972C118.688 108.985 118.523 109.03 118.374 109.102C118.226 109.175 118.098 109.274 117.999 109.392C117.999 109.392 117.999 109.463 118.067 109.449C118.289 109.317 118.554 109.246 118.826 109.246C119.098 109.246 119.363 109.317 119.585 109.449C119.946 109.685 120.278 109.951 120.577 110.242C120.679 110.334 120.882 110.242 120.798 110.106C120.272 108.592 118.143 106.793 116.176 107.1Z" fill="#263238"/>
<path d="M133.314 119.002L130.694 125.178L121.366 117.774L118.94 120.33C118.94 120.33 128.268 132.276 128.311 131.719L131.05 126.378L135.519 129.891L134.747 120.737L133.314 119.002Z" fill="#EBEBEB"/>
<path d="M135.434 125.35C135.248 123.836 135.112 122.315 134.841 120.816C134.841 120.766 134.73 120.745 134.713 120.816C134.425 122.287 135.171 128.049 135.231 129.434C135.044 129.277 131.092 126.349 131.059 126.399C130.456 127.256 128.438 131.148 128.311 131.497C126.827 129.598 121.179 122.708 119.449 120.923C119.44 120.912 119.426 120.904 119.411 120.901C119.395 120.898 119.378 120.901 119.365 120.909C119.351 120.916 119.342 120.928 119.339 120.942C119.335 120.955 119.339 120.969 119.348 120.98C120.671 122.994 128.15 132.276 128.26 132.247C129.329 130.408 130.283 128.523 131.118 126.599C131.796 127.242 135.79 130.562 135.799 130.341C135.78 128.673 135.658 127.007 135.434 125.35Z" fill="#263238"/>
<path d="M137.452 43.7182C136.845 43.7008 136.248 43.5827 135.695 43.3707C135.142 43.1588 134.644 42.8571 134.23 42.483C133.633 42.0146 133.171 41.4384 132.877 40.7978C132.583 40.1572 132.466 39.4688 132.534 38.7845L133.161 38.8773C133.106 39.4802 133.214 40.0858 133.477 40.6485C133.74 41.2112 134.151 41.7164 134.679 42.126C135.088 42.5071 135.599 42.8005 136.17 42.9818C136.741 43.1631 137.355 43.2271 137.961 43.1684C139.233 42.9828 140.386 41.9832 141.607 40.9336C143.074 39.6698 144.592 38.3561 146.653 38.0776C150.622 37.4779 155.854 41.9689 156.074 42.1617L155.616 42.533C155.566 42.4901 150.401 38.0419 146.763 38.606C144.906 38.8844 143.465 40.1268 142.065 41.3334C140.666 42.5401 139.521 43.4755 138.071 43.7254C137.865 43.7371 137.658 43.7347 137.452 43.7182Z" fill="#263238"/>
<path d="M133.136 39.2057L132.865 38.7202C133.44 38.4653 133.934 38.098 134.306 37.6492C134.843 36.7409 135.25 35.7822 135.519 34.7932L136.138 34.9217C135.848 35.9621 135.409 36.969 134.832 37.9205C134.405 38.4632 133.822 38.9055 133.136 39.2057Z" fill="#6F42C1"/>
<path d="M132.398 38.9701C131.96 38.4588 131.59 37.908 131.296 37.3279C130.965 36.6139 131.499 34.3148 131.559 34.0578L132.186 34.1649C131.902 35.1381 131.802 36.1429 131.889 37.1423C132.169 37.6772 132.513 38.1868 132.915 38.6631L132.398 38.9701Z" fill="#6F42C1"/>
<path d="M133.136 39.0558L132.593 38.7702C133.128 38.0932 133.588 37.3762 133.967 36.6282L134.815 33.8722L135.434 34.0007C135.434 34.0007 134.79 36.1427 134.586 36.7639C134.19 37.5649 133.705 38.3324 133.136 39.0558Z" fill="#6F42C1"/>
<path d="M132.407 38.8987C132.307 37.9104 132.307 36.9168 132.407 35.9285C132.576 35.4001 132.814 33.7865 132.814 33.7437L133.45 33.8079C133.45 33.8722 133.204 35.5001 133.026 36.0642C132.93 36.993 132.93 37.927 133.026 38.8559L132.407 38.8987Z" fill="#6F42C1"/>
<path d="M170.261 44.9106L191.385 33.8864L165.623 32.3085L146.017 45.646L170.261 44.9106Z" fill="#6F42C1"/>
<path opacity="0.1" d="M170.261 44.9106L191.385 33.8864L165.623 32.3085L146.017 45.646L170.261 44.9106Z" fill="black"/>
<path d="M182.71 43.554L181.362 37.5278C181.362 37.5278 173.34 36.6425 167.895 38.0633C162.451 39.4842 156.634 43.4897 156.634 43.4897L159.424 49.6444C159.424 49.6444 166.852 46.2958 171.296 45.2248C175.05 44.4439 178.864 43.8856 182.71 43.554Z" fill="#6F42C1"/>
</svg>
