<svg width="18" height="18" viewBox="0 0 18 18" fill="none" xmlns="http://www.w3.org/2000/svg">
<path d="M13.2289 3.69651C12.0594 2.59071 10.4732 1.96948 8.81923 1.96948C7.16528 1.96948 5.57907 2.59071 4.40955 3.69651C3.24004 4.8023 2.58301 6.30208 2.58301 7.86592C2.58301 9.42975 3.24004 10.9295 4.40955 12.0353L8.28272 15.7044C8.35104 15.7695 8.43232 15.8212 8.52188 15.8565C8.61144 15.8918 8.7075 15.91 8.80453 15.91C8.90155 15.91 8.99761 15.8918 9.08717 15.8565C9.17673 15.8212 9.25801 15.7695 9.32634 15.7044L13.2289 12.0006C14.3935 10.8994 15.0478 9.40585 15.0478 7.84854C15.0478 6.29123 14.3935 4.7977 13.2289 3.69651ZM6.61439 5.73257C6.02108 6.29528 5.68791 7.05744 5.68791 7.85202C5.68791 8.64659 6.02108 9.40875 6.61439 9.97147C7.05518 10.389 7.61655 10.6741 8.22807 10.791C8.83959 10.908 9.47403 10.8516 10.0518 10.6289C10.6295 10.4063 11.1249 10.0273 11.4757 9.53941C11.8265 9.05157 12.0171 8.47664 12.0236 7.88676C12.0269 7.4929 11.9467 7.1024 11.7876 6.73836C11.6285 6.37432 11.3939 6.04413 11.0976 5.76731C10.8063 5.48559 10.4589 5.2611 10.0756 5.10679C9.69217 4.95247 9.28029 4.87136 8.86362 4.86813C8.44695 4.8649 8.03371 4.93961 7.6477 5.08797C7.26169 5.23632 6.91051 5.45539 6.61439 5.73257ZM10.0613 8.98471C9.78277 9.25206 9.41469 9.41965 9.01996 9.45881C8.62523 9.49796 8.22838 9.40626 7.89724 9.19938C7.56611 8.9925 7.32126 8.68329 7.20456 8.32461C7.08785 7.96593 7.10654 7.58006 7.25744 7.23297C7.40833 6.88588 7.68204 6.59912 8.03179 6.42173C8.38154 6.24433 8.7856 6.18732 9.17489 6.26043C9.56418 6.33354 9.91452 6.53223 10.166 6.82254C10.4175 7.11285 10.5546 7.47675 10.5537 7.85202C10.543 8.28096 10.3527 8.68835 10.0245 8.98471H10.0613Z" fill="#8B8A8A"/>
<ellipse cx="8.81942" cy="7.81032" rx="2.93978" ry="2.77961" fill="white"/>
</svg>
