<svg width="288" height="45" viewBox="0 0 288 45" fill="none" xmlns="http://www.w3.org/2000/svg">
<path d="M50.3 36.46C49.9267 36.46 49.6333 36.34 49.42 36.1C49.2333 35.86 49.14 35.5133 49.14 35.06C49.14 34.3933 49.38 33.9 49.86 33.58C50.34 33.2333 50.98 33.06 51.78 33.06H52.18L56.14 12.38L55.62 12.18C54.6067 11.78 53.9133 11.4333 53.54 11.14C53.1667 10.82 52.98 10.38 52.98 9.81996C52.98 9.41996 53.06 9.12663 53.22 8.93996C53.38 8.75329 53.5933 8.65996 53.86 8.65996H64.5L69.38 26.14C69.62 27.0466 69.82 28.22 69.98 29.66C70.1667 31.1 70.2733 32.0466 70.3 32.5H70.46C70.4867 32.0466 70.58 31.1 70.74 29.66C70.9 28.22 71.1 27.0466 71.34 26.14L75.78 8.65996H86.5C86.7667 8.65996 86.98 8.75329 87.14 8.93996C87.3 9.12663 87.38 9.41996 87.38 9.81996C87.38 10.38 87.1933 10.82 86.82 11.14C86.4467 11.4333 85.7533 11.78 84.74 12.18L84.22 12.38L88.7 33.06L90.1 33.66C90.74 33.9266 91.1933 34.1933 91.46 34.46C91.7267 34.7 91.86 35.02 91.86 35.42C91.86 36.1133 91.6333 36.46 91.18 36.46H80.1C79.7267 36.46 79.4333 36.34 79.22 36.1C79.0333 35.86 78.94 35.5133 78.94 35.06C78.94 34.3933 79.18 33.9 79.66 33.58C80.14 33.2333 80.78 33.06 81.58 33.06H82.9L79.3 16.06C79.1933 15.5 79.1 14.86 79.02 14.14C78.94 13.3933 78.9 12.9 78.9 12.66H78.74C78.7133 12.9 78.6333 13.3933 78.5 14.14C78.3933 14.86 78.2733 15.5 78.14 16.06L72.98 36.46H66.46L60.66 16.06C60.5 15.5 60.3667 14.86 60.26 14.14C60.18 13.3933 60.1267 12.9 60.1 12.66H59.94C59.94 12.9 59.9133 13.3933 59.86 14.14C59.8067 14.86 59.7267 15.5 59.62 16.06L56.54 33.1L58.7 33.9C59.42 34.1666 59.9133 34.42 60.18 34.66C60.4467 34.9 60.58 35.2066 60.58 35.58C60.58 36.1666 60.3533 36.46 59.9 36.46H50.3ZM99.5766 37.06C97.8432 37.06 96.3632 36.58 95.1366 35.62C93.9099 34.6333 93.2966 33.2333 93.2966 31.42C93.2966 29.3133 94.0432 27.78 95.5366 26.82C97.0299 25.86 98.9632 25.2066 101.337 24.86L105.537 24.22V22.94C105.537 21.9266 105.217 21.1533 104.577 20.62C103.963 20.06 103.083 19.78 101.937 19.78C101.243 19.78 100.483 19.8866 99.6566 20.1C98.8566 20.3133 98.2432 20.5533 97.8166 20.82L97.3766 22.38C97.2166 22.9666 96.9899 23.4066 96.6966 23.7C96.4032 23.9933 96.0166 24.14 95.5366 24.14C95.1899 24.14 94.9232 24.06 94.7366 23.9C94.5766 23.74 94.4966 23.5266 94.4966 23.26V18.62C95.6699 17.9533 97.0032 17.42 98.4966 17.02C100.017 16.5933 101.497 16.38 102.937 16.38C105.39 16.38 107.363 16.9533 108.857 18.1C110.377 19.2466 111.137 20.9133 111.137 23.1V33.42L112.337 34.02C112.95 34.3133 113.377 34.58 113.617 34.82C113.857 35.06 113.977 35.3533 113.977 35.7C113.977 35.9666 113.923 36.1666 113.817 36.3C113.71 36.4066 113.523 36.46 113.257 36.46H105.617V34.62H105.457C104.79 35.3666 103.923 35.9666 102.857 36.42C101.79 36.8466 100.697 37.06 99.5766 37.06ZM101.337 33.5C102.457 33.5 103.43 33.1133 104.257 32.34C105.11 31.5666 105.537 30.6866 105.537 29.7V27.42L102.337 27.94C100.043 28.34 98.8966 29.4066 98.8966 31.14C98.8966 31.8333 99.1099 32.4066 99.5366 32.86C99.9632 33.2866 100.563 33.5 101.337 33.5ZM124.293 37.06C122.613 37.06 121.053 36.7 119.613 35.98C118.199 35.2333 117.066 34.1 116.213 32.58C115.359 31.0333 114.933 29.1266 114.933 26.86C114.933 24.7266 115.373 22.8733 116.253 21.3C117.159 19.7 118.386 18.4866 119.933 17.66C121.479 16.8066 123.186 16.38 125.053 16.38C126.839 16.38 128.466 16.74 129.933 17.46V11.26H128.173C127.453 11.26 127.093 10.82 127.093 9.93996C127.093 9.32663 127.306 8.85996 127.733 8.53996C128.186 8.21996 128.799 8.05996 129.573 8.05996H135.413V33.3L136.853 34.02C137.466 34.3133 137.893 34.58 138.133 34.82C138.373 35.06 138.493 35.3533 138.493 35.7C138.493 35.9666 138.439 36.1666 138.333 36.3C138.226 36.4066 138.039 36.46 137.773 36.46H130.053V34.62H129.893C129.279 35.3666 128.493 35.9666 127.533 36.42C126.573 36.8466 125.493 37.06 124.293 37.06ZM125.613 33.66C126.866 33.66 127.879 33.3 128.653 32.58C129.453 31.86 129.853 30.8733 129.853 29.62V20.9C129.373 20.58 128.786 20.3133 128.093 20.1C127.399 19.8866 126.719 19.78 126.053 19.78C124.453 19.78 123.133 20.4066 122.093 21.66C121.053 22.8866 120.533 24.6066 120.533 26.82C120.533 29.1133 120.999 30.8333 121.933 31.98C122.866 33.1 124.093 33.66 125.613 33.66ZM150.724 37.06C149.071 37.06 147.284 36.8333 145.364 36.38C143.471 35.9 141.951 35.3266 140.804 34.66V27.98C140.804 27.6866 140.884 27.46 141.044 27.3C141.204 27.1133 141.444 27.02 141.764 27.02C142.271 27.02 142.671 27.2066 142.964 27.58C143.257 27.9533 143.591 28.7133 143.964 29.86L144.724 32.1C145.257 32.42 146.017 32.7 147.004 32.94C148.017 33.18 149.057 33.3 150.124 33.3C151.644 33.3 152.924 33.0466 153.964 32.54C155.004 32.0066 155.524 31.18 155.524 30.06C155.524 29.2866 155.337 28.6333 154.964 28.1C154.617 27.54 154.031 27.0066 153.204 26.5C152.377 25.9666 151.151 25.3266 149.524 24.58C147.737 23.7533 146.244 22.9533 145.044 22.18C143.844 21.4066 142.857 20.4733 142.084 19.38C141.311 18.26 140.924 16.9666 140.924 15.5C140.924 13.8733 141.377 12.5 142.284 11.38C143.191 10.26 144.377 9.43329 145.844 8.89996C147.311 8.33996 148.911 8.05996 150.644 8.05996C152.404 8.05996 154.124 8.31329 155.804 8.81996C157.484 9.32663 158.897 10.0066 160.044 10.86V17.06C160.044 17.3533 159.964 17.5933 159.804 17.78C159.644 17.94 159.404 18.02 159.084 18.02C158.577 18.02 158.177 17.8333 157.884 17.46C157.591 17.0866 157.257 16.3266 156.884 15.18L156.124 12.94C154.791 12.1933 153.137 11.82 151.164 11.82C149.884 11.82 148.857 12.0733 148.084 12.58C147.311 13.0866 146.924 13.8333 146.924 14.82C146.924 15.46 147.137 16.0333 147.564 16.54C147.991 17.02 148.577 17.4733 149.324 17.9C150.071 18.3266 151.191 18.9 152.684 19.62L154.284 20.38C155.831 21.1266 157.111 21.8733 158.124 22.62C159.137 23.3666 159.951 24.3 160.564 25.42C161.204 26.5133 161.524 27.8333 161.524 29.38C161.524 31.94 160.524 33.86 158.524 35.14C156.551 36.42 153.951 37.06 150.724 37.06ZM175.108 37.06C173.055 37.06 171.202 36.66 169.548 35.86C167.922 35.0333 166.628 33.8466 165.668 32.3C164.735 30.7266 164.268 28.8466 164.268 26.66C164.268 24.3933 164.748 22.4866 165.708 20.94C166.668 19.3933 167.922 18.2466 169.468 17.5C171.015 16.7533 172.682 16.38 174.468 16.38C175.988 16.38 177.402 16.6333 178.708 17.14C180.042 17.62 181.108 18.18 181.908 18.82V23.34C181.908 23.6066 181.815 23.82 181.628 23.98C181.468 24.14 181.215 24.22 180.868 24.22C179.962 24.22 179.362 23.6333 179.068 22.46L178.588 20.62C177.655 20.06 176.535 19.78 175.228 19.78C173.682 19.78 172.402 20.3666 171.388 21.54C170.375 22.6866 169.868 24.4066 169.868 26.7C169.868 28.9933 170.388 30.7266 171.428 31.9C172.495 33.0733 173.882 33.66 175.588 33.66C176.335 33.66 177.028 33.5533 177.668 33.34C178.308 33.1266 178.988 32.7933 179.708 32.34C179.788 32.2866 179.922 32.2066 180.108 32.1C180.295 31.9666 180.442 31.8866 180.548 31.86C180.682 31.8066 180.802 31.78 180.908 31.78C181.308 31.78 181.642 31.9266 181.908 32.22C182.175 32.5133 182.308 32.9 182.308 33.38C182.308 34.2066 181.708 34.98 180.508 35.7C179.015 36.6066 177.215 37.06 175.108 37.06ZM185.282 36.46C184.562 36.46 184.202 36.02 184.202 35.14C184.202 34.5266 184.415 34.06 184.842 33.74C185.295 33.42 185.908 33.26 186.682 33.26H187.042V11.26H185.282C184.562 11.26 184.202 10.82 184.202 9.93996C184.202 9.32663 184.415 8.85996 184.842 8.53996C185.295 8.21996 185.908 8.05996 186.682 8.05996H192.482V19.18H192.642C194.802 17.3133 196.988 16.38 199.202 16.38C201.175 16.38 202.775 16.94 204.002 18.06C205.228 19.1533 205.842 20.66 205.842 22.58V33.3L207.282 34.02C207.895 34.3133 208.322 34.58 208.562 34.82C208.802 35.0333 208.922 35.3266 208.922 35.7C208.922 35.9666 208.868 36.1666 208.762 36.3C208.655 36.4066 208.468 36.46 208.202 36.46H198.482C197.762 36.46 197.402 36.02 197.402 35.14C197.402 34.5266 197.615 34.06 198.042 33.74C198.495 33.42 199.108 33.26 199.882 33.26H200.242V23.02C200.242 20.9133 199.255 19.86 197.282 19.86C196.508 19.86 195.708 20.0866 194.882 20.54C194.055 20.9666 193.308 21.54 192.642 22.26V33.3L194.082 34.02C194.695 34.3133 195.122 34.58 195.362 34.82C195.602 35.0333 195.722 35.3266 195.722 35.7C195.722 35.9666 195.668 36.1666 195.562 36.3C195.455 36.4066 195.268 36.46 195.002 36.46H185.282ZM219.977 37.06C218.111 37.06 216.404 36.6866 214.857 35.94C213.337 35.1933 212.111 34.0466 211.177 32.5C210.244 30.9266 209.777 28.9933 209.777 26.7C209.777 24.4066 210.231 22.4866 211.137 20.94C212.071 19.3933 213.311 18.2466 214.857 17.5C216.404 16.7533 218.111 16.38 219.977 16.38C221.844 16.38 223.551 16.7533 225.097 17.5C226.644 18.2466 227.871 19.3933 228.777 20.94C229.711 22.4866 230.177 24.4066 230.177 26.7C230.177 28.9933 229.711 30.9266 228.777 32.5C227.844 34.0466 226.604 35.1933 225.057 35.94C223.537 36.6866 221.844 37.06 219.977 37.06ZM219.977 33.66C221.471 33.66 222.604 33.0733 223.377 31.9C224.151 30.7 224.537 28.9666 224.537 26.7C224.537 24.4333 224.151 22.7133 223.377 21.54C222.604 20.3666 221.471 19.78 219.977 19.78C218.484 19.78 217.351 20.3666 216.577 21.54C215.804 22.7133 215.417 24.4333 215.417 26.7C215.417 28.9666 215.804 30.7 216.577 31.9C217.351 33.0733 218.484 33.66 219.977 33.66ZM233.721 36.46C233.001 36.46 232.641 36.02 232.641 35.14C232.641 34.5266 232.854 34.06 233.281 33.74C233.734 33.42 234.348 33.26 235.121 33.26H235.481V11.26H233.721C233.001 11.26 232.641 10.82 232.641 9.93996C232.641 9.32663 232.854 8.85996 233.281 8.53996C233.734 8.21996 234.348 8.05996 235.121 8.05996H241.081V33.3L242.521 34.02C243.134 34.3133 243.561 34.58 243.801 34.82C244.041 35.0333 244.161 35.3266 244.161 35.7C244.161 35.9666 244.108 36.1666 244.001 36.3C243.894 36.4066 243.708 36.46 243.441 36.46H233.721ZM252.428 37.06C250.695 37.06 249.215 36.58 247.988 35.62C246.761 34.6333 246.148 33.2333 246.148 31.42C246.148 29.3133 246.895 27.78 248.388 26.82C249.881 25.86 251.815 25.2066 254.188 24.86L258.388 24.22V22.94C258.388 21.9266 258.068 21.1533 257.428 20.62C256.815 20.06 255.935 19.78 254.788 19.78C254.095 19.78 253.335 19.8866 252.508 20.1C251.708 20.3133 251.095 20.5533 250.668 20.82L250.228 22.38C250.068 22.9666 249.841 23.4066 249.548 23.7C249.255 23.9933 248.868 24.14 248.388 24.14C248.041 24.14 247.775 24.06 247.588 23.9C247.428 23.74 247.348 23.5266 247.348 23.26V18.62C248.521 17.9533 249.855 17.42 251.348 17.02C252.868 16.5933 254.348 16.38 255.788 16.38C258.241 16.38 260.215 16.9533 261.708 18.1C263.228 19.2466 263.988 20.9133 263.988 23.1V33.42L265.188 34.02C265.801 34.3133 266.228 34.58 266.468 34.82C266.708 35.06 266.828 35.3533 266.828 35.7C266.828 35.9666 266.775 36.1666 266.668 36.3C266.561 36.4066 266.375 36.46 266.108 36.46H258.468V34.62H258.308C257.641 35.3666 256.775 35.9666 255.708 36.42C254.641 36.8466 253.548 37.06 252.428 37.06ZM254.188 33.5C255.308 33.5 256.281 33.1133 257.108 32.34C257.961 31.5666 258.388 30.6866 258.388 29.7V27.42L255.188 27.94C252.895 28.34 251.748 29.4066 251.748 31.14C251.748 31.8333 251.961 32.4066 252.388 32.86C252.815 33.2866 253.415 33.5 254.188 33.5ZM269.81 36.46C269.09 36.46 268.73 36.02 268.73 35.14C268.73 34.5266 268.943 34.06 269.37 33.74C269.823 33.42 270.437 33.26 271.21 33.26H271.57V19.98H269.81C269.09 19.98 268.73 19.54 268.73 18.66C268.73 18.0466 268.943 17.58 269.37 17.26C269.823 16.94 270.437 16.78 271.21 16.78H276.93V20.86H277.09C277.997 19.58 279.063 18.5133 280.29 17.66C281.517 16.8066 282.73 16.38 283.93 16.38C284.837 16.38 285.53 16.6466 286.01 17.18C286.49 17.6866 286.73 18.3133 286.73 19.06C286.73 19.54 286.637 20.0066 286.45 20.46C286.29 20.9133 286.077 21.2866 285.81 21.58C282.503 21.58 279.623 22.4866 277.17 24.3V33.3L278.61 34.02C279.223 34.3133 279.65 34.58 279.89 34.82C280.13 35.0333 280.25 35.3266 280.25 35.7C280.25 35.9666 280.197 36.1666 280.09 36.3C279.983 36.4066 279.797 36.46 279.53 36.46H269.81Z" fill="white"/>
<path d="M1 15.2609L25.1603 1L42 17L25.1603 10.3913L1 15.2609Z" fill="white" stroke="white"/>
<path d="M43 31.8851L26.0772 13L2 16.8731L21.2617 19.0652L31.8686 31.8851L23.8244 44L43 31.8851Z" fill="white" stroke="white"/>
<path d="M22.7109 42L29 32L6 34.375L22.7109 42Z" fill="white" stroke="white"/>
</svg>
