<svg width="2332" height="879" viewBox="0 0 2332 879" fill="none" xmlns="http://www.w3.org/2000/svg">
<path opacity="0.14" fill-rule="evenodd" clip-rule="evenodd" d="M1997 15.4264C2016.53 -4.09984 2048.18 -4.09979 2067.71 15.4264L2085.61 33.324C2105.13 52.8502 2105.13 84.5085 2085.61 104.035L2021 168.643V218.284L2219.93 19.3553C2239.46 -0.170881 2271.11 -0.170837 2290.64 19.3554L2317.3 46.0116C2336.82 65.5378 2336.82 97.196 2317.3 116.722L2021 413.018V591H868.555L600.491 859.064C580.965 878.59 549.307 878.59 529.78 859.064L500.636 829.92L466.491 864.064C446.965 883.59 415.307 883.59 395.78 864.064L15.3556 483.639C-4.17062 464.113 -4.17062 432.455 15.3556 412.929L357.929 70.3553C377.455 50.8291 409.113 50.8292 428.64 70.3554L457.784 99.5L491.929 65.3553C511.455 45.8291 543.113 45.8292 562.64 65.3554L628.284 131H1881.43L1997 15.4264Z" fill="#7951F9"/>
</svg>
