<svg width="18" height="17" viewBox="0 0 18 17" fill="none" xmlns="http://www.w3.org/2000/svg">
<path d="M7.8695 1.94593C8.37461 1.53594 9.20182 1.53594 9.71425 1.94593L10.8709 2.891C11.0905 3.07167 11.5004 3.2176 11.7933 3.2176H13.0377C13.8137 3.2176 14.4506 3.82216 14.4506 4.55876V5.74009C14.4506 6.0111 14.6043 6.4072 14.7946 6.61567L15.7902 7.71361C16.2221 8.19309 16.2221 8.97833 15.7902 9.46476L14.7946 10.5627C14.6043 10.7712 14.4506 11.1603 14.4506 11.4383V12.6196C14.4506 13.3562 13.8137 13.9608 13.0377 13.9608H11.7933C11.5078 13.9608 11.0905 14.1067 10.8709 14.2874L9.71425 15.2324C9.20914 15.6424 8.38193 15.6424 7.8695 15.2324L6.71287 14.2874C6.49326 14.1067 6.08331 13.9608 5.79049 13.9608H4.52406C3.74809 13.9608 3.11121 13.3562 3.11121 12.6196V11.4313C3.11121 11.1603 2.95748 10.7712 2.77447 10.5627L1.78621 9.45782C1.36163 8.97833 1.36163 8.20004 1.78621 7.72056L2.77447 6.61567C2.95748 6.4072 3.11121 6.01805 3.11121 5.74704V4.55181C3.11121 3.81522 3.74809 3.21065 4.52406 3.21065H5.79049C6.07599 3.21065 6.49326 3.06472 6.71287 2.88405L7.8695 1.94593Z" fill="#6F42C1" stroke="#5A32A3" stroke-width="1.5" stroke-linecap="round" stroke-linejoin="round"/>
<path d="M6.13452 8.58224L7.89875 10.2639L11.4345 6.90058" stroke="#F0F7FF" stroke-width="1.5" stroke-linecap="round" stroke-linejoin="round"/>
</svg>
